<svg xmlns="http://www.w3.org/2000/svg" width="18" height="20" viewBox="0 0 18 20">
  <g id="Iconly_Bold_Document" data-name="Iconly/Bold/Document" transform="translate(-3 -2)">
    <g id="Document" transform="translate(3 2)">
      <path id="Path_10657" data-name="Path 10657" d="M13.191,0C16.28,0,18,1.78,18,4.83h0V15.16c0,3.1-1.72,4.84-4.809,4.84H4.81C1.77,20,0,18.26,0,15.16H0V4.83C0,1.78,1.77,0,4.81,0h8.381ZM5.08,13.74a.784.784,0,0,0-.75.37.8.8,0,0,0,0,.84.777.777,0,0,0,.75.36h7.84a.79.79,0,0,0,0-1.57H5.08Zm7.84-4.561H5.08a.781.781,0,0,0,0,1.561h7.84a.781.781,0,0,0,0-1.561ZM8.069,4.65H5.08v.01a.78.78,0,0,0,0,1.56H8.069a.785.785,0,0,0,0-1.57Z" fill="#757c78"/>
    </g>
  </g>
</svg>
