<svg xmlns="http://www.w3.org/2000/svg" width="18" height="20" viewBox="0 0 18 20">
  <g id="Iconly_Bold_Delete" data-name="Iconly/Bold/Delete" transform="translate(-3 -2)">
    <g id="Delete" transform="translate(3 2)">
      <path id="Path_10658" data-name="Path 10658" d="M15.939,6.7a.726.726,0,0,1,.523.234.746.746,0,0,1,.181.558c0,.068-.533,6.808-.837,9.645a2.917,2.917,0,0,1-3,2.827C11.515,19.99,10.25,20,9,20c-1.323,0-2.616-.01-3.872-.039A2.917,2.917,0,0,1,2.2,17.134c-.313-2.847-.836-9.577-.846-9.645a.791.791,0,0,1,.191-.558A.706.706,0,0,1,2.069,6.7ZM11.065,0a1.986,1.986,0,0,1,1.9,1.5h0l.163.73a1.281,1.281,0,0,0,1.241,1.016h2.916A.723.723,0,0,1,18,3.977h0v.38a.73.73,0,0,1-.713.734H.714A.73.73,0,0,1,0,4.357H0v-.38a.723.723,0,0,1,.714-.734H3.63A1.282,1.282,0,0,0,4.871,2.228h0l.153-.682A1.988,1.988,0,0,1,6.935,0h4.129Z" fill="red"/>
    </g>
  </g>
</svg>
