<svg id="页面-1" xmlns="http://www.w3.org/2000/svg" width="14" height="14" viewBox="0 0 14 14">
  <g id="File">
    <g id="pdf_fill">
      <path id="MingCute" d="M14,0V14H0V0ZM7.346,13.567H7.339l-.041.021-.011,0h0l-.009,0-.041-.021a.012.012,0,0,0-.014,0l0,.006-.01.249,0,.012.006.007.06.043.009,0h0l.007,0,.06-.043.007-.009h0l0-.01-.01-.249a.012.012,0,0,0-.009-.01ZM7.5,13.5H7.493l-.108.054-.006.006h0l0,.007.01.251,0,.007h0l0,0,.117.054a.015.015,0,0,0,.017,0l0-.008-.02-.359A.015.015,0,0,0,7.5,13.5Zm-.417,0a.013.013,0,0,0-.016,0l0,.008-.02.359a.013.013,0,0,0,.01.014h.009l.117-.054.006,0h0l0-.007.01-.251,0-.007h0l-.006-.005Z" fill="none"/>
      <path id="形状" d="M8.667,2V5.792a.875.875,0,0,0,.875.875h3.792V12.5a1.167,1.167,0,0,1-1.167,1.167h-7A1.167,1.167,0,0,1,4,12.5V3.167A1.167,1.167,0,0,1,5.167,2ZM8.09,7.745A3.63,3.63,0,0,1,6.786,10a.584.584,0,0,0,.577,1A3.63,3.63,0,0,1,9.97,11a.584.584,0,0,0,.577-1,3.63,3.63,0,0,1-1.3-2.258A.584.584,0,0,0,8.09,7.745Zm.576,1.432.47.813H8.2ZM9.833,2.025a1.167,1.167,0,0,1,.583.316l2.575,2.575a1.166,1.166,0,0,1,.316.583H9.833Z" transform="translate(-1.667 -0.833)" fill="#ff0014" fill-rule="evenodd"/>
    </g>
  </g>
</svg>
