<svg id="external" xmlns="http://www.w3.org/2000/svg" width="24" height="24" viewBox="0 0 24 24">
  <g id="Building" transform="translate(-864 -144)">
    <g id="eiffel_tower_fill" transform="translate(864 144)">
      <path id="MingCute" d="M24,0V24H0V0ZM12.593,23.258l-.012,0-.071.036-.019,0h0l-.015,0-.071-.036a.021.021,0,0,0-.024.005l0,.011-.017.427,0,.02.011.012.1.074.015,0h0l.012,0,.1-.074.013-.016h0l0-.017-.017-.427a.021.021,0,0,0-.016-.018Zm.265-.113-.014,0-.185.092-.01.01h0l0,.011.018.43,0,.013h0l.008.007.2.093a.025.025,0,0,0,.028-.008l0-.014-.034-.615a.025.025,0,0,0-.019-.021Zm-.715,0a.023.023,0,0,0-.027.005l-.006.014-.034.615a.023.023,0,0,0,.017.023h.016l.2-.093.009-.008h0l0-.012.018-.43,0-.013h0l-.009-.009Z" fill="none"/>
      <path id="形状" d="M12,1a1,1,0,0,1,1,1V3.957c.031.35.069.7.109,1.049a1,1,0,0,1,.254,1.926l.063.413h0A37.042,37.042,0,0,0,14.708,13H15a1,1,0,0,1,.464,1.886c.178.375.37.748.57,1.114H17a1,1,0,0,1,.23,1.973,31.907,31.907,0,0,0,2.523,3.368A1,1,0,0,1,19,23H15a1,1,0,0,1-.847-.468l-.061-.113a2.789,2.789,0,0,0-.522-.72,2.113,2.113,0,0,0-3.14,0,2.992,2.992,0,0,0-.437.561l-.086.159A1,1,0,0,1,9,23H5a1,1,0,0,1-.752-1.66A31.9,31.9,0,0,0,6.77,17.973,1,1,0,0,1,7,16h.966c.2-.366.393-.738.571-1.114A1,1,0,0,1,9,13h.292a35.272,35.272,0,0,0,1.185-5.055l.16-1.013h0a1,1,0,0,1,.254-1.926c.04-.349.078-.7.109-1.049V2A1,1,0,0,1,12,1Zm1.323,14H10.677l-.222.5h0l-.236.5h3.561l-.236-.5h0Z" fill="#09244b" fill-rule="evenodd"/>
    </g>
  </g>
</svg>
