<svg id="页面-1" xmlns="http://www.w3.org/2000/svg" width="43" height="43" viewBox="0 0 43 43">
  <g id="Map">
    <g id="location_fill">
      <path id="MingCute" d="M43,0V43H0V0ZM22.563,41.67l-.021,0-.127.064-.034.007h0l-.027-.007-.127-.064a.038.038,0,0,0-.042.01l-.007.02-.031.766.009.037.02.022.186.133.027.007h0l.021-.007.186-.133.023-.029h0l.006-.03-.031-.766a.038.038,0,0,0-.029-.032Zm.475-.2-.025,0-.331.165-.018.018h0l0,.02.032.77.009.023h0l.015.013.36.166a.045.045,0,0,0,.051-.014l.007-.025-.061-1.1a.045.045,0,0,0-.035-.038Zm-1.282,0a.041.041,0,0,0-.049.009l-.01.025-.061,1.1a.041.041,0,0,0,.03.042l.028,0,.36-.166.017-.014h0l.007-.021.032-.77-.006-.023h0l-.017-.016Z" fill="none"/>
      <path id="形状" d="M19.125,2A16.125,16.125,0,0,1,35.25,18.125c0,5.507-3,10.014-6.166,13.248A36.623,36.623,0,0,1,23.93,35.7l-.762.52-.361.238-.674.429h0l-.6.368h0l-.745.433h0a3.358,3.358,0,0,1-3.322,0l-.745-.433h0l-.931-.575-.345-.222-.735-.49a36.977,36.977,0,0,1-5.541-4.6C6,28.139,3,23.632,3,18.125A16.125,16.125,0,0,1,19.125,2Zm0,10.75A5.375,5.375,0,1,0,24.5,18.125,5.375,5.375,0,0,0,19.125,12.75Z" transform="translate(2.375 1.583)" fill="#ffac00"/>
    </g>
  </g>
</svg>
