<svg id="location" xmlns="http://www.w3.org/2000/svg" xmlns:xlink="http://www.w3.org/1999/xlink" width="72.962" height="103.986" viewBox="0 0 72.962 103.986">
  <defs>
    <clipPath id="clip-path">
      <path id="Path_709" data-name="Path 709" d="M211.064,571.2a3.043,3.043,0,0,1-.545.406l8.349-4.851a3.034,3.034,0,0,0,.545-.406Z" transform="translate(-210.519 -566.348)" fill="none"/>
    </clipPath>
    <clipPath id="clip-path-2">
      <path id="Path_729" data-name="Path 729" d="M90.921,276.317c3.849,7.8,9.789,14.8,16.453,18.648l8.349-4.851c-6.664-3.847-12.6-10.855-16.454-18.651q-4.174,2.426-8.347,4.854" transform="translate(-90.921 -271.463)" fill="none"/>
    </clipPath>
    <clipPath id="clip-path-3">
      <path id="Path_747" data-name="Path 747" d="M64.675,174.121a40.92,40.92,0,0,0,4.556,17.743q4.17-2.432,8.347-4.854a40.926,40.926,0,0,1-4.555-17.74l-8.348,4.851" transform="translate(-64.675 -169.27)" fill="none"/>
    </clipPath>
    <clipPath id="clip-path-4">
      <path id="Path_754" data-name="Path 754" d="M185.7,383.753a24.1,24.1,0,0,0,4.244,1.956l8.349-4.851a24.088,24.088,0,0,1-4.244-1.957l-8.348,4.851" transform="translate(-185.698 -378.902)" fill="none"/>
    </clipPath>
    <clipPath id="clip-path-5">
      <path id="Path_766" data-name="Path 766" d="M70.834,96.288c-3.788,2.2-6.139,6.875-6.158,13.511l8.348-4.851c.019-6.637,2.37-11.311,6.158-13.511l-8.348,4.851" transform="translate(-64.676 -91.437)" fill="none"/>
    </clipPath>
    <clipPath id="clip-path-6">
      <path id="Path_812" data-name="Path 812" d="M82.307,111.044c-3.409,1.981-5.525,6.187-5.542,12.162-.034,12.022,8.454,26.723,18.917,32.764l8.348-4.851c-10.463-6.041-18.951-20.741-18.917-32.764.017-5.974,2.133-10.181,5.542-12.162Z" transform="translate(-76.764 -106.193)" fill="none"/>
    </clipPath>
    <clipPath id="clip-path-7">
      <path id="Path_823" data-name="Path 823" d="M218.494,387.793l-8.349,4.851c4.152,1.417,7.866,1.175,10.749-.5l8.349-4.851c-2.883,1.675-6.6,1.917-10.749.5" transform="translate(-210.145 -387.293)" fill="none"/>
    </clipPath>
    <clipPath id="clip-path-8">
      <path id="Path_824" data-name="Path 824" d="M116.113,154.391a6.127,6.127,0,0,0-.74.515c-.071.057-.138.119-.207.179a6.428,6.428,0,0,0-.48.464c-.066.071-.133.142-.2.217a7.094,7.094,0,0,0-.5.656c-.025.038-.054.071-.079.11-.006.009-.013.017-.018.026a8.07,8.07,0,0,0-.483.875c0,.01-.009.021-.013.031-.015.031-.026.065-.041.1-.089.194-.175.391-.253.6-.038.1-.07.211-.1.316-.021.063-.043.125-.063.189s-.039.111-.056.169q-.094.318-.17.653c-.018.078-.032.161-.048.24-.01.051-.021.1-.031.154-.015.078-.033.153-.047.232q-.052.3-.091.611c-.014.114-.024.232-.036.349,0,.041-.009.081-.012.122s-.011.1-.015.145q-.024.3-.037.6t-.015.619c0,.012,0,.024,0,.037q0,.287.008.577.009.308.029.619c.006.094.015.189.023.284,0,.041.006.081.01.122.006.072.01.144.017.216q.03.312.07.626t.091.643l0,.021c0,.007,0,.014,0,.02q.048.3.1.605.063.333.136.667c.017.08.038.16.056.239.01.046.021.091.032.137.023.1.044.2.068.294q.084.339.178.679c.046.166.1.332.145.5.009.03.017.06.026.09l.026.088q.1.331.212.662t.228.653c.015.041.031.081.046.122l.036.1c.051.136.1.272.153.408q.121.312.25.622c.062.15.127.3.192.448l.033.077.037.086q.137.31.281.618.159.339.327.676c.017.034.036.068.053.1s.045.087.068.131c.091.178.181.357.276.534.118.222.245.439.369.658.063.111.123.224.187.334.026.044.048.088.074.131.112.191.236.374.353.562.169.275.336.551.514.82.029.043.054.089.083.132q.393.588.81,1.154.279.379.569.747.235.3.477.589l.01.012.007.008q.244.293.495.579t.5.552l.082.086.088.093c.117.124.234.249.353.37q.267.272.54.533c.055.053.112.1.168.156l.129.12c.089.082.176.166.266.247q.281.254.569.5c.083.07.168.137.252.206l.129.1c.063.051.125.1.189.154q.279.22.562.428c.135.1.272.195.408.29l.078.055.07.05q.27.185.543.359t.541.331l.126.073q.2.118.407.228.264.143.525.272c.113.056.224.107.337.158l.082.039.1.047q.258.115.512.217t.517.194l.086.028.078.026c.116.039.233.079.348.114q.267.08.529.146c.084.021.167.037.25.056l.11.024c.055.012.11.026.164.037q.284.055.561.092c.114.015.224.024.336.034l.119.012c.038,0,.077.009.115.012q.3.021.6.02c.087,0,.171-.009.257-.012.067,0,.134-.005.2-.01s.139,0,.207-.01a7.072,7.072,0,0,0,.737-.107l.013,0c.053-.011.1-.03.153-.042a6.524,6.524,0,0,0,.728-.2c.019-.007.036-.019.055-.026a6.125,6.125,0,0,0,.981-.454l8.348-4.851a6.131,6.131,0,0,1-.981.454,6.464,6.464,0,0,1-.783.226c-.052.012-.1.031-.153.042a7.116,7.116,0,0,1-.957.12c-.066,0-.133.007-.2.01a8.108,8.108,0,0,1-.972-.019l-.119-.012a9.5,9.5,0,0,1-1.061-.163l-.11-.024a11.234,11.234,0,0,1-1.128-.315l-.078-.026q-.6-.205-1.216-.487l-.082-.039c-.418-.194-.841-.411-1.269-.658s-.859-.522-1.28-.814l-.076-.054q-.589-.411-1.16-.874l-.129-.1q-.552-.453-1.086-.949l-.129-.12q-.541-.51-1.06-1.059l-.088-.093q-.554-.592-1.081-1.225l-.01-.012a30.17,30.17,0,0,1-1.939-2.622c-.177-.269-.345-.545-.514-.82-.142-.231-.29-.459-.426-.693-.064-.11-.124-.223-.188-.334-.222-.394-.44-.79-.645-1.192-.022-.044-.046-.087-.068-.131q-.37-.734-.7-1.482l-.033-.077q-.32-.734-.6-1.477l-.036-.1q-.279-.76-.511-1.525c-.009-.03-.017-.06-.026-.09q-.22-.735-.392-1.471l-.032-.137c-.116-.506-.216-1.011-.3-1.512l0-.02c-.08-.505-.14-1.008-.182-1.506,0-.041-.006-.082-.01-.123-.039-.5-.061-.992-.06-1.479s.026-.953.067-1.4c0-.041.008-.081.012-.122q.062-.619.174-1.192.015-.077.031-.154.115-.554.274-1.062c.02-.064.041-.126.062-.189a9.437,9.437,0,0,1,.357-.915c.014-.031.026-.066.041-.1a8.047,8.047,0,0,1,.515-.932c.025-.039.053-.072.078-.11a7.051,7.051,0,0,1,.5-.656c.064-.075.131-.145.2-.217a6.46,6.46,0,0,1,.48-.464c.069-.06.136-.122.207-.179a6.132,6.132,0,0,1,.74-.515Z" transform="translate(-112.38 -149.54)" fill="none"/>
    </clipPath>
    <linearGradient id="linear-gradient" x1="-0.257" y1="1.754" x2="-0.253" y2="1.754" gradientUnits="objectBoundingBox">
      <stop offset="0" stop-color="#992034"/>
      <stop offset="0.29" stop-color="#961f33"/>
      <stop offset="0.5" stop-color="#8c1e33"/>
      <stop offset="0.685" stop-color="#7c1d33"/>
      <stop offset="0.855" stop-color="#661b32"/>
      <stop offset="1" stop-color="#4d1932"/>
    </linearGradient>
    <clipPath id="clip-path-9">
      <path id="Path_840" data-name="Path 840" d="M185.738,369.837c5.268,3.041,10.048,3.319,13.5,1.312l8.349-4.851c-3.454,2.007-8.234,1.729-13.5-1.312Z" transform="translate(-185.738 -364.986)" fill="none"/>
    </clipPath>
    <clipPath id="clip-path-10">
      <path id="Path_847" data-name="Path 847" d="M117.038,100.081l-8.349,4.851A10.162,10.162,0,0,1,114.8,103.7l8.349-4.851q-.567-.051-1.114-.051a9.832,9.832,0,0,0-5,1.284" transform="translate(-108.689 -98.797)" fill="none"/>
    </clipPath>
    <clipPath id="clip-path-11">
      <path id="Path_858" data-name="Path 858" d="M143.906,103.942a18.244,18.244,0,0,1,7.385,2.544l8.349-4.851a18.245,18.245,0,0,0-7.385-2.544l-8.349,4.851" transform="translate(-143.906 -99.091)" fill="none"/>
    </clipPath>
    <clipPath id="clip-path-12">
      <path id="Path_874" data-name="Path 874" d="M108.488,84.654l-8.349,4.851c3.835-2.228,9.141-1.92,14.99,1.457l8.349-4.851a19.156,19.156,0,0,0-9.438-2.882,10.918,10.918,0,0,0-5.552,1.426" transform="translate(-100.139 -83.228)" fill="none"/>
    </clipPath>
    <clipPath id="clip-path-13">
      <path id="Path_891" data-name="Path 891" d="M268.684,280.764a28.852,28.852,0,0,1,.374,4.615c-.017,5.972-2.133,10.179-5.543,12.159l8.349-4.851c3.409-1.981,5.525-6.188,5.542-12.16a28.831,28.831,0,0,0-.374-4.615l-8.349,4.851" transform="translate(-263.516 -275.913)" fill="none"/>
    </clipPath>
    <clipPath id="clip-path-14">
      <path id="Path_897" data-name="Path 897" d="M287.773,256.227a35.728,35.728,0,0,1,.957,4.259l8.349-4.851a35.688,35.688,0,0,0-.957-4.26l-8.349,4.851" transform="translate(-287.773 -251.376)" fill="none"/>
    </clipPath>
    <clipPath id="clip-path-15">
      <path id="Path_903" data-name="Path 903" d="M280.809,235.707q.6,1.538,1.07,3.092l8.349-4.851q-.468-1.551-1.07-3.092l-8.349,4.851" transform="translate(-280.809 -230.856)" fill="none"/>
    </clipPath>
    <clipPath id="clip-path-16">
      <path id="Path_906" data-name="Path 906" d="M276.941,226.356q.353.808.671,1.623l8.349-4.851q-.318-.815-.672-1.623l-8.348,4.851" transform="translate(-276.941 -221.505)" fill="none"/>
    </clipPath>
    <clipPath id="clip-path-17">
      <path id="Path_909" data-name="Path 909" d="M274.845,221.689q.186.4.364.81l8.348-4.851q-.178-.406-.364-.81l-8.349,4.851" transform="translate(-274.845 -216.838)" fill="none"/>
    </clipPath>
    <clipPath id="clip-path-18">
      <path id="Path_930" data-name="Path 930" d="M186.449,118.6c6.314,3.645,11.908,10.439,15.345,17.9l8.349-4.851c-3.438-7.457-9.031-14.251-15.345-17.9Z" transform="translate(-186.449 -113.747)" fill="none"/>
    </clipPath>
    <clipPath id="clip-path-19">
      <path id="Path_976" data-name="Path 976" d="M186.489,104.683c11.624,6.711,21.051,23.037,21.013,36.393-.019,6.635-2.37,11.308-6.157,13.508l8.349-4.851c3.787-2.2,6.138-6.874,6.156-13.509.038-13.356-9.389-29.683-21.013-36.393Z" transform="translate(-186.489 -99.832)" fill="none"/>
    </clipPath>
    <clipPath id="clip-path-20">
      <path id="Path_977" data-name="Path 977" d="M71.05,0c-.119,0-.233.014-.351.017-.342.007-.681.023-1.016.048-.1.008-.207.005-.307.014-.075.007-.146.024-.221.032-.512.053-1.017.124-1.511.219-.043.008-.088.01-.13.019l-.035.008c-.1.02-.194.048-.293.07-.31.069-.619.141-.921.226-.146.041-.287.091-.432.136-.193.06-.388.114-.577.181-.048.017-.093.04-.141.057-.289.106-.571.225-.851.347-.138.06-.28.113-.416.177-.412.193-.816.4-1.208.628L54.292,7.031c.392-.228.8-.435,1.208-.629.134-.063.274-.116.411-.175.282-.122.565-.243.856-.349.235-.086.474-.162.714-.237.145-.045.289-.1.436-.137.3-.085.6-.156.912-.224.1-.022.2-.051.3-.072.053-.011.108-.016.161-.026.5-.1,1-.166,1.515-.22.174-.018.35-.033.527-.047.335-.025.675-.04,1.018-.048.193,0,.385-.01.58-.009.271,0,.547.014.822.027.223.01.445.019.67.036s.464.045.7.071c.254.028.509.056.766.093.217.031.436.07.655.108.275.047.55.1.829.154.189.039.379.083.57.127q.444.1.893.222c.19.051.381.1.572.158.325.094.652.2.981.3.157.052.313.1.471.154.484.167.972.345,1.463.542l.007,0h0c.49.2.984.412,1.481.637.155.07.311.147.466.22q.527.248,1.058.518.263.134.528.273c.469.248.94.5,1.415.775.523.3,1.044.62,1.561.947l.113.069c.509.324,1.014.662,1.517,1.008.173.119.344.245.516.367.336.238.671.479,1,.727.2.152.407.309.61.465.3.231.6.465.9.7q.329.264.655.535.425.352.847.714.336.289.668.583.413.366.821.743c.222.2.443.408.663.617.277.262.55.528.823.8.2.2.406.4.607.6.284.286.565.579.845.872.185.193.371.385.554.581.323.346.642.7.959,1.053.129.144.26.285.389.431q.671.762,1.325,1.547c.066.08.13.162.2.242q.554.673,1.1,1.361.69.879,1.358,1.783l.019.024c.629.854,1.237,1.728,1.834,2.612.109.162.219.323.327.485q1.11,1.669,2.134,3.4c.088.148.177.295.264.443q.72,1.232,1.4,2.489c.163.3.32.609.479.915.17.326.341.651.506.979.228.454.449.911.668,1.368.073.153.149.3.221.458q.42.893.814,1.794c.069.158.135.316.2.474q.289.671.565,1.345.125.307.247.614.258.648.5,1.3c.07.186.141.371.209.557q.313.855.6,1.713c.016.048.034.1.051.145q.311.93.592,1.861c.061.2.117.4.176.6.125.427.248.853.364,1.28.065.238.126.476.187.714q.155.6.3,1.2.084.354.165.708c.093.411.179.82.263,1.23.044.218.091.436.133.654q.154.8.283,1.6c.013.081.029.162.042.243q.145.917.256,1.829c.021.173.038.345.058.518.049.436.094.871.132,1.3.018.208.034.416.05.624q.046.618.075,1.232c.01.2.02.393.028.589.021.581.034,1.16.033,1.735,0,.993-.044,1.954-.114,2.889,0,.059-.006.119-.011.177-.069.873-.172,1.714-.3,2.534-.019.124-.036.25-.056.373-.128.781-.285,1.535-.463,2.266-.042.173-.088.342-.133.512q-.244.925-.542,1.792c-.051.151-.1.308-.151.457-.26.719-.545,1.411-.858,2.069a20.4,20.4,0,0,1-1.149,2.088c-.261.414-.549.792-.833,1.174-.141.19-.269.4-.416.579a16.794,16.794,0,0,1-1.409,1.541L81.958,103.166l8.348-4.851L111.4,78.657a16.787,16.787,0,0,0,1.408-1.541c.149-.184.278-.394.42-.586.271-.365.55-.72.8-1.113.011-.017.019-.037.03-.054a20.37,20.37,0,0,0,1.149-2.088c0-.009.01-.017.014-.026q.425-.895.785-1.865c.021-.057.038-.12.059-.178.054-.149.1-.307.151-.458.121-.356.248-.706.356-1.077.068-.232.123-.477.185-.715.045-.17.091-.339.133-.512.033-.137.074-.267.105-.406q.175-.769.315-1.574c.016-.094.027-.193.043-.287.02-.123.036-.249.055-.373.045-.3.095-.589.133-.893q.094-.752.158-1.532c0-.036,0-.073.007-.109,0-.058.006-.118.011-.177.031-.412.059-.826.077-1.25q.032-.762.036-1.548c0-.031,0-.061,0-.092s0-.054,0-.081v-.087q0-.642-.02-1.289c0-.092-.01-.185-.013-.277-.007-.2-.018-.392-.028-.589-.011-.232-.018-.463-.032-.7-.011-.178-.029-.357-.043-.536-.016-.208-.032-.416-.05-.624-.012-.137-.02-.274-.033-.412-.028-.3-.066-.595-.1-.892-.02-.173-.036-.345-.058-.518-.007-.057-.012-.114-.019-.172q-.1-.809-.231-1.623c0-.011,0-.023-.006-.034-.013-.081-.029-.162-.042-.243-.074-.451-.149-.9-.234-1.356-.015-.081-.034-.162-.049-.242-.042-.218-.088-.436-.133-.654-.053-.263-.1-.525-.16-.789-.032-.146-.069-.293-.1-.439q-.08-.355-.165-.71c-.043-.181-.081-.362-.127-.543-.054-.217-.115-.434-.171-.652-.062-.238-.123-.476-.187-.714-.032-.116-.059-.232-.092-.349-.086-.311-.181-.621-.272-.931-.059-.2-.115-.4-.176-.6-.017-.057-.033-.114-.05-.171q-.256-.836-.536-1.67l-.007-.02c-.016-.048-.034-.1-.051-.145q-.25-.741-.516-1.481c-.028-.077-.059-.154-.087-.232-.068-.186-.139-.371-.209-.557-.1-.265-.2-.529-.3-.793-.066-.169-.136-.336-.2-.5q-.122-.307-.247-.614c-.061-.15-.119-.3-.181-.45-.124-.3-.255-.6-.384-.9-.068-.158-.134-.316-.2-.474-.025-.056-.048-.113-.073-.17q-.346-.782-.71-1.56l-.031-.064c-.072-.153-.148-.3-.222-.458-.189-.4-.377-.791-.573-1.183-.031-.062-.064-.123-.1-.184-.165-.328-.336-.653-.506-.979-.134-.258-.263-.519-.4-.776-.025-.047-.053-.092-.078-.139q-.675-1.257-1.4-2.489c-.041-.069-.077-.141-.118-.21s-.1-.154-.146-.233q-1.025-1.728-2.134-3.4c-.04-.06-.075-.124-.115-.184-.069-.1-.143-.2-.212-.3-.6-.884-1.2-1.758-1.834-2.612h0l-.018-.023q-.668-.9-1.359-1.784c-.02-.025-.039-.052-.059-.077-.334-.425-.675-.841-1.017-1.257-.073-.089-.144-.18-.217-.269l-.012-.014q-.616-.741-1.248-1.461l-.065-.072c-.126-.143-.255-.282-.382-.423-.269-.3-.537-.6-.81-.9-.051-.055-.1-.107-.155-.162-.183-.2-.369-.387-.554-.581-.2-.214-.406-.432-.612-.641-.077-.078-.156-.152-.233-.23-.2-.2-.4-.4-.606-.6-.174-.171-.346-.348-.522-.516-.1-.1-.2-.187-.3-.282-.219-.207-.44-.411-.661-.615-.153-.14-.3-.286-.457-.425-.121-.109-.245-.212-.366-.319q-.331-.294-.666-.581c-.135-.116-.269-.238-.4-.353s-.3-.242-.446-.364q-.324-.268-.65-.531c-.114-.092-.226-.188-.341-.278-.187-.147-.376-.286-.564-.43s-.4-.31-.6-.461c-.084-.062-.166-.128-.25-.19-.251-.185-.506-.36-.759-.539-.171-.121-.341-.246-.513-.365-.044-.031-.088-.064-.133-.095Q88,5.892,87.311,5.453L87.3,5.445c-.033-.021-.066-.04-.1-.061-.417-.264-.835-.521-1.256-.769l-.318-.185q-.516-.3-1.027-.575c-.13-.07-.258-.132-.388-.2q-.264-.14-.527-.273c-.136-.069-.273-.145-.409-.212-.218-.108-.434-.2-.651-.307-.155-.073-.31-.149-.465-.219-.064-.029-.129-.062-.192-.091q-.649-.29-1.289-.547l-.01,0q-.653-.261-1.3-.488c-.056-.02-.112-.035-.168-.055-.156-.054-.31-.1-.465-.152-.22-.072-.442-.15-.661-.216-.109-.033-.216-.058-.325-.09C77.561.947,77.371.9,77.181.845c-.146-.039-.294-.085-.439-.121s-.3-.066-.454-.1C76.1.579,75.908.536,75.719.5c-.1-.02-.2-.047-.3-.067C75.24.395,75.067.373,74.89.343,74.671.3,74.452.266,74.236.235,74.159.224,74.081.207,74,.2c-.181-.024-.357-.035-.537-.055C73.235.116,73,.089,72.773.071,72.7.066,72.635.055,72.567.05,72.41.039,72.257.042,72.1.035c-.275-.013-.55-.025-.82-.027-.074,0-.15-.007-.223-.007Z" transform="translate(-54.292)" fill="#a51037"/>
    </clipPath>
    <clipPath id="clip-path-21">
      <path id="Path_978" data-name="Path 978" d="M32.263,84.2C25.2,80.123,19.486,70.231,19.509,62.111S25.283,50.717,32.347,54.8,45.128,68.767,45.105,76.888c-.016,5.749-2.9,9.07-7.1,9.07A11.667,11.667,0,0,1,32.263,84.2M0,50.848c0,.03,0,.06,0,.09V51c.006,8.252,2.351,17.219,6.392,25.836l20.825,43.723a13.042,13.042,0,0,0,4.929,5.665,5.7,5.7,0,0,0,2.79.854h0a3.068,3.068,0,0,0,2.153-.82L58.183,106.6c4.018-3.869,6.407-10.158,6.431-18.452.058-20.5-14.359-45.473-32.2-55.775-5.207-3.006-10.131-4.431-14.494-4.431C7.33,27.945.041,36.329,0,50.848" transform="translate(0 -27.945)" fill="#f2154f"/>
    </clipPath>
    <clipPath id="clip-path-22">
      <rect id="Rectangle_673" data-name="Rectangle 673" width="72.962" height="103.986" fill="none"/>
    </clipPath>
  </defs>
  <g id="Group_1801" data-name="Group 1801" transform="translate(36.545 98.315)">
    <g id="Group_1800" data-name="Group 1800" clip-path="url(#clip-path)">
      <path id="Path_708" data-name="Path 708" d="M211.064,571.2l8.349-4.851a3.043,3.043,0,0,1-.545.406l-8.349,4.851a3.037,3.037,0,0,0,.545-.406" transform="translate(-210.519 -566.348)" fill="#803035"/>
    </g>
  </g>
  <g id="Group_1803" data-name="Group 1803" transform="translate(15.783 47.125)">
    <g id="Group_1802" data-name="Group 1802" clip-path="url(#clip-path-2)">
      <path id="Path_710" data-name="Path 710" d="M88.364,271.019l8.349-4.851q.262.56.539,1.114L88.9,272.134q-.277-.554-.539-1.114" transform="translate(-88.808 -267.087)" fill="#f87880"/>
      <path id="Path_711" data-name="Path 711" d="M91.471,277.439l8.349-4.851q.318.637.654,1.267l-8.349,4.851q-.336-.629-.654-1.267" transform="translate(-91.376 -272.393)" fill="#f87e85"/>
      <path id="Path_712" data-name="Path 712" d="M95.241,284.737l8.349-4.851q.5.938,1.042,1.857l-8.349,4.851q-.54-.918-1.042-1.857" transform="translate(-94.491 -278.424)" fill="#f9828a"/>
      <path id="Path_713" data-name="Path 713" d="M101.242,295.434l8.349-4.851q.753,1.279,1.576,2.511l-8.348,4.851q-.823-1.23-1.576-2.511" transform="translate(-99.45 -287.264)" fill="#f9878e"/>
      <path id="Path_714" data-name="Path 714" d="M110.322,309.9l8.349-4.851q.647.968,1.335,1.9l-8.349,4.851q-.687-.932-1.335-1.9" transform="translate(-106.954 -299.216)" fill="#f9828a"/>
      <path id="Path_715" data-name="Path 715" d="M118.012,320.845l8.349-4.851q.458.622.934,1.225l-8.349,4.851q-.475-.6-.934-1.225" transform="translate(-113.309 -308.264)" fill="#f87e85"/>
      <path id="Path_716" data-name="Path 716" d="M123.39,327.9l8.349-4.851q.4.509.813,1l-8.349,4.851q-.412-.5-.813-1" transform="translate(-117.754 -314.097)" fill="#f87880"/>
      <path id="Path_717" data-name="Path 717" d="M128.071,333.69l8.349-4.851q.4.484.815.953l-8.349,4.851q-.412-.47-.815-.954" transform="translate(-121.622 -318.879)" fill="#f87078"/>
      <path id="Path_718" data-name="Path 718" d="M132.766,339.183l8.348-4.851q.406.462.821.91l-8.349,4.851q-.415-.448-.821-.91" transform="translate(-125.502 -323.418)" fill="#f75c66"/>
      <path id="Path_719" data-name="Path 719" d="M137.5,344.425l8.349-4.851q.426.46.862.9l-8.349,4.851q-.436-.443-.862-.9" transform="translate(-129.412 -327.75)" fill="#f25a64"/>
      <path id="Path_720" data-name="Path 720" d="M142.461,349.627l8.349-4.851q.439.447.887.877l-8.349,4.851q-.448-.43-.887-.877" transform="translate(-133.514 -332.049)" fill="#ed5862"/>
      <path id="Path_721" data-name="Path 721" d="M147.571,354.679l8.349-4.851q.458.44.926.861L148.5,355.54q-.467-.421-.926-.861" transform="translate(-137.737 -336.224)" fill="#e85660"/>
      <path id="Path_722" data-name="Path 722" d="M152.9,359.638l8.349-4.851q.463.418.936.816l-8.349,4.851q-.472-.4-.936-.816" transform="translate(-142.143 -340.322)" fill="#e3555e"/>
      <path id="Path_723" data-name="Path 723" d="M158.293,364.341l8.349-4.851q.464.392.936.764l-8.349,4.851q-.472-.372-.936-.764" transform="translate(-146.598 -344.209)" fill="#de535c"/>
      <path id="Path_724" data-name="Path 724" d="M163.685,368.744l8.349-4.851q.458.361.922.7l-8.349,4.851q-.465-.342-.922-.7" transform="translate(-151.054 -347.848)" fill="#d9515a"/>
      <path id="Path_725" data-name="Path 725" d="M169,372.8l8.349-4.851q.454.334.913.649l-8.349,4.851q-.46-.315-.913-.649" transform="translate(-155.444 -351.195)" fill="#d44f58"/>
      <path id="Path_726" data-name="Path 726" d="M174.26,376.535l8.349-4.851q.443.3.891.589l-8.348,4.851q-.448-.285-.891-.589" transform="translate(-159.793 -354.286)" fill="#cf4d56"/>
      <path id="Path_727" data-name="Path 727" d="M179.394,379.929l8.349-4.851q.442.281.888.544l-8.349,4.851q-.446-.263-.888-.544" transform="translate(-164.035 -357.091)" fill="#ca4b54"/>
      <path id="Path_728" data-name="Path 728" d="M184.51,383.061l8.349-4.851.206.12-8.349,4.851-.206-.12" transform="translate(-168.263 -359.679)" fill="#c54a52"/>
    </g>
  </g>
  <g id="Group_1805" data-name="Group 1805" transform="translate(11.227 29.384)">
    <g id="Group_1804" data-name="Group 1804" clip-path="url(#clip-path-3)">
      <path id="Path_730" data-name="Path 730" d="M64.675,173.774l8.349-4.851c0,.02,0,.04,0,.06q0,.471.013.947l-8.349,4.851q-.014-.476-.013-.947c0-.02,0-.04,0-.06" transform="translate(-64.675 -168.983)" fill="#b24249"/>
      <path id="Path_731" data-name="Path 731" d="M64.75,179.575l8.349-4.851q.015.505.047,1.015L64.8,180.591q-.032-.51-.047-1.015" transform="translate(-64.737 -173.777)" fill="#b7444b"/>
      <path id="Path_732" data-name="Path 732" d="M65.023,185.424l8.349-4.851q.032.509.081,1.022L65.1,186.446q-.049-.513-.081-1.022" transform="translate(-64.963 -178.611)" fill="#bb464e"/>
      <path id="Path_733" data-name="Path 733" d="M65.492,191.31l8.349-4.851q.049.513.115,1.029l-8.349,4.851q-.066-.516-.115-1.029" transform="translate(-65.35 -183.475)" fill="#c04850"/>
      <path id="Path_734" data-name="Path 734" d="M66.152,197.24l8.349-4.851q.067.527.15,1.056L66.3,198.3q-.084-.53-.15-1.057" transform="translate(-65.896 -188.376)" fill="#c54a52"/>
      <path id="Path_735" data-name="Path 735" d="M67.018,203.326l8.349-4.851q.084.53.184,1.063L67.2,204.39q-.1-.533-.184-1.063" transform="translate(-66.611 -193.405)" fill="#ca4b54"/>
      <path id="Path_736" data-name="Path 736" d="M68.077,209.452l8.349-4.851q.1.548.223,1.1L68.3,210.551q-.12-.55-.223-1.1" transform="translate(-67.486 -198.468)" fill="#cf4d56"/>
      <path id="Path_737" data-name="Path 737" d="M69.362,215.779l8.349-4.851q.12.551.257,1.1l-8.349,4.851q-.137-.552-.257-1.1" transform="translate(-68.548 -203.696)" fill="#d44f58"/>
      <path id="Path_738" data-name="Path 738" d="M70.843,222.134l8.349-4.851q.139.559.294,1.119l-8.349,4.851q-.155-.56-.294-1.119" transform="translate(-69.772 -208.948)" fill="#d9515a"/>
      <path id="Path_739" data-name="Path 739" d="M72.536,228.578l8.349-4.851q.155.557.325,1.114l-8.349,4.851q-.171-.557-.325-1.114" transform="translate(-71.171 -214.274)" fill="#de535c"/>
      <path id="Path_740" data-name="Path 740" d="M74.411,235l8.349-4.851q.167.546.35,1.09l-8.349,4.851q-.182-.544-.35-1.09" transform="translate(-72.721 -219.578)" fill="#e3555e"/>
      <path id="Path_741" data-name="Path 741" d="M76.425,241.278l8.349-4.851q.18.538.375,1.075L76.8,242.354q-.195-.537-.375-1.075" transform="translate(-74.385 -224.769)" fill="#e85660"/>
      <path id="Path_742" data-name="Path 742" d="M78.584,247.472l8.349-4.851q.187.517.388,1.032L78.972,248.5q-.2-.515-.388-1.032" transform="translate(-76.17 -229.888)" fill="#ed5862"/>
      <path id="Path_743" data-name="Path 743" d="M80.818,253.419l8.349-4.851q.2.513.412,1.025l-8.349,4.851q-.212-.511-.412-1.025" transform="translate(-78.016 -234.802)" fill="#f25a64"/>
      <path id="Path_744" data-name="Path 744" d="M83.194,259.324l8.349-4.851q.21.506.433,1.009l-8.349,4.851q-.222-.5-.433-1.009" transform="translate(-79.979 -239.682)" fill="#f75c66"/>
      <path id="Path_745" data-name="Path 745" d="M85.685,265.136l8.349-4.851q.227.512.465,1.021l-8.349,4.851q-.239-.509-.465-1.021" transform="translate(-82.038 -244.485)" fill="#f87078"/>
      <path id="Path_746" data-name="Path 746" d="M88.364,271.019l8.349-4.851q.262.56.539,1.114L88.9,272.134q-.277-.554-.539-1.114" transform="translate(-84.252 -249.347)" fill="#f87880"/>
    </g>
  </g>
  <g id="Group_1807" data-name="Group 1807" transform="translate(32.236 65.776)">
    <g id="Group_1806" data-name="Group 1806" clip-path="url(#clip-path-4)">
      <path id="Path_748" data-name="Path 748" d="M185.7,383.754l8.349-4.851q.335.193.667.373l-8.349,4.851q-.332-.18-.667-.373" transform="translate(-185.697 -378.903)" fill="#c54a52"/>
      <path id="Path_749" data-name="Path 749" d="M189.541,385.9l8.349-4.851q.432.234.86.445l-8.349,4.851q-.428-.211-.86-.445" transform="translate(-188.874 -380.679)" fill="#c04850"/>
      <path id="Path_750" data-name="Path 750" d="M194.493,388.469l8.349-4.851q.428.211.851.4l-8.349,4.851q-.423-.189-.851-.4" transform="translate(-192.966 -382.799)" fill="#bb464e"/>
      <path id="Path_751" data-name="Path 751" d="M199.393,390.777l8.349-4.851q.423.189.841.356l-8.349,4.851q-.418-.167-.841-.357" transform="translate(-197.016 -384.707)" fill="#b7444b"/>
      <path id="Path_752" data-name="Path 752" d="M204.236,392.831l8.349-4.851q.427.171.849.319l-8.349,4.852q-.421-.148-.849-.319" transform="translate(-201.018 -386.404)" fill="#b24249"/>
      <path id="Path_753" data-name="Path 753" d="M209.124,394.67l8.349-4.851q.424.149.842.276l-8.349,4.851q-.418-.126-.842-.275" transform="translate(-205.057 -387.924)" fill="#ad4047"/>
    </g>
  </g>
  <g id="Group_1809" data-name="Group 1809" transform="translate(11.227 15.873)">
    <g id="Group_1808" data-name="Group 1808" clip-path="url(#clip-path-5)">
      <path id="Path_755" data-name="Path 755" d="M82.713,96.292l8.349-4.851a10.747,10.747,0,0,0-3.66,3.575l-8.349,4.851a10.746,10.746,0,0,1,3.66-3.575" transform="translate(-76.557 -91.44)" fill="#803035"/>
      <path id="Path_756" data-name="Path 756" d="M75.264,116.888l8.349-4.851a13.247,13.247,0,0,0-.8,1.443l-8.349,4.851a13.265,13.265,0,0,1,.8-1.443" transform="translate(-72.768 -108.461)" fill="#853237"/>
      <path id="Path_757" data-name="Path 757" d="M72.062,125.2l8.349-4.851q-.273.575-.505,1.2L71.557,126.4q.232-.623.505-1.2" transform="translate(-70.362 -115.332)" fill="#8a3439"/>
      <path id="Path_758" data-name="Path 758" d="M69.807,132.1l8.349-4.851q-.2.537-.368,1.108l-8.349,4.851q.168-.571.368-1.108" transform="translate(-68.612 -121.035)" fill="#8f353b"/>
      <path id="Path_759" data-name="Path 759" d="M68.105,138.487l8.349-4.851q-.154.523-.28,1.075l-8.349,4.851q.126-.552.28-1.075" transform="translate(-67.278 -126.31)" fill="#94373d"/>
      <path id="Path_760" data-name="Path 760" d="M66.841,144.677l8.348-4.851q-.115.5-.207,1.03l-8.349,4.851q.091-.527.207-1.03" transform="translate(-66.294 -131.426)" fill="#99393f"/>
      <path id="Path_761" data-name="Path 761" d="M65.92,150.61l8.349-4.851q-.085.492-.15,1l-8.349,4.851q.064-.512.15-1" transform="translate(-65.58 -136.329)" fill="#9e3b41"/>
      <path id="Path_762" data-name="Path 762" d="M65.272,156.394l8.349-4.851q-.062.5-.1,1.012l-8.349,4.851q.042-.515.1-1.012" transform="translate(-65.082 -141.109)" fill="#a33d43"/>
      <path id="Path_763" data-name="Path 763" d="M64.875,162.224l8.349-4.851q-.04.487-.061.99l-8.349,4.851q.021-.5.061-.99" transform="translate(-64.79 -145.927)" fill="#a83f45"/>
      <path id="Path_764" data-name="Path 764" d="M64.7,167.928l8.349-4.851q-.021.5-.024,1.015l-8.349,4.851q0-.515.024-1.015" transform="translate(-64.677 -150.641)" fill="#ad4047"/>
      <path id="Path_765" data-name="Path 765" d="M64.675,173.774l8.349-4.851c0,.02,0,.04,0,.06q0,.471.013.947l-8.349,4.851q-.014-.476-.013-.947c0-.02,0-.04,0-.06" transform="translate(-64.675 -155.472)" fill="#b24249"/>
    </g>
  </g>
  <g id="Group_1811" data-name="Group 1811" transform="translate(13.326 18.435)">
    <g id="Group_1810" data-name="Group 1810" clip-path="url(#clip-path-6)">
      <path id="Path_767" data-name="Path 767" d="M93,111.044l8.349-4.851a9.677,9.677,0,0,0-3.3,3.219L89.7,114.263a9.679,9.679,0,0,1,3.3-3.219" transform="translate(-87.458 -106.193)" fill="#848484"/>
      <path id="Path_768" data-name="Path 768" d="M86.294,129.589l8.349-4.851a11.932,11.932,0,0,0-.716,1.3l-8.349,4.851a11.963,11.963,0,0,1,.716-1.3" transform="translate(-84.048 -121.519)" fill="#898989"/>
      <path id="Path_769" data-name="Path 769" d="M83.414,137.072l8.349-4.851q-.246.518-.455,1.078L82.96,138.15q.208-.56.454-1.078" transform="translate(-81.884 -127.703)" fill="#8e8e8e"/>
      <path id="Path_770" data-name="Path 770" d="M81.383,143.283l8.349-4.851q-.18.483-.331,1l-8.349,4.851q.151-.514.331-1" transform="translate(-80.308 -132.835)" fill="#939393"/>
      <path id="Path_771" data-name="Path 771" d="M79.852,149.028l8.349-4.851q-.138.471-.252.967L79.6,150q.114-.5.252-.967" transform="translate(-79.108 -137.583)" fill="#989898"/>
      <path id="Path_772" data-name="Path 772" d="M78.714,154.6l8.349-4.851q-.1.453-.186.927l-8.349,4.851q.082-.474.186-.927" transform="translate(-78.222 -142.187)" fill="#9d9d9d"/>
      <path id="Path_773" data-name="Path 773" d="M77.885,159.94l8.349-4.851q-.077.443-.135.9l-8.349,4.851q.058-.461.135-.9" transform="translate(-77.579 -146.601)" fill="#a2a2a2"/>
      <path id="Path_774" data-name="Path 774" d="M77.3,165.145l8.349-4.851q-.056.447-.094.911l-8.349,4.851q.038-.464.094-.911" transform="translate(-77.13 -150.902)" fill="#a7a7a7"/>
      <path id="Path_775" data-name="Path 775" d="M76.944,170.393l8.349-4.851q-.036.438-.055.891l-8.349,4.851q.019-.453.055-.891" transform="translate(-76.867 -155.239)" fill="#acacac"/>
      <path id="Path_776" data-name="Path 776" d="M76.788,175.527l8.349-4.851q-.019.449-.021.913l-8.349,4.851q0-.464.021-.913" transform="translate(-76.767 -159.482)" fill="#b2b2b2"/>
      <path id="Path_777" data-name="Path 777" d="M76.765,180.788l8.349-4.851c0,.018,0,.036,0,.054q0,.424.012.851l-8.349,4.851q-.013-.428-.012-.852c0-.018,0-.036,0-.054" transform="translate(-76.764 -163.83)" fill="#b7b7b7"/>
      <path id="Path_778" data-name="Path 778" d="M76.832,186.007l8.349-4.851q.014.454.043.913l-8.349,4.851q-.029-.459-.043-.913" transform="translate(-76.82 -168.143)" fill="#bcbcbc"/>
      <path id="Path_779" data-name="Path 779" d="M77.078,191.268l8.349-4.851q.029.458.073.919l-8.349,4.851q-.044-.461-.073-.919" transform="translate(-77.024 -172.491)" fill="#c1c1c1"/>
      <path id="Path_780" data-name="Path 780" d="M77.5,196.564l8.349-4.851q.044.461.1.926L77.6,197.49q-.059-.465-.1-.926" transform="translate(-77.371 -176.867)" fill="#c6c6c6"/>
      <path id="Path_781" data-name="Path 781" d="M78.093,201.9l8.349-4.851q.06.474.135.951l-8.349,4.851q-.075-.477-.135-.951" transform="translate(-77.862 -181.276)" fill="#cbcbcb"/>
      <path id="Path_782" data-name="Path 782" d="M78.873,207.375l8.349-4.851q.075.477.165.957l-8.349,4.851q-.09-.48-.165-.957" transform="translate(-78.507 -185.801)" fill="#d0d0d0"/>
      <path id="Path_783" data-name="Path 783" d="M79.826,212.887l8.348-4.851q.093.493.2.988l-8.349,4.851q-.108-.494-.2-.988" transform="translate(-79.295 -190.357)" fill="#d5d5d5"/>
      <path id="Path_784" data-name="Path 784" d="M80.981,218.58l8.349-4.851q.108.5.231.993l-8.349,4.851q-.123-.5-.231-.993" transform="translate(-80.249 -195.061)" fill="#dadada"/>
      <path id="Path_785" data-name="Path 785" d="M82.314,224.3l8.349-4.851q.125.5.265,1.007L82.579,225.3q-.14-.5-.265-1.007" transform="translate(-81.351 -199.787)" fill="#dfdfdf"/>
      <path id="Path_786" data-name="Path 786" d="M83.838,230.1l8.349-4.851q.139.5.293,1L84.131,231.1q-.154-.5-.293-1" transform="translate(-82.61 -204.58)" fill="#e5e5e5"/>
      <path id="Path_787" data-name="Path 787" d="M85.526,235.876l8.349-4.851q.151.491.315.982l-8.349,4.851q-.164-.491-.315-.982" transform="translate(-84.005 -209.355)" fill="#eaeaea"/>
      <path id="Path_788" data-name="Path 788" d="M87.34,241.536l8.349-4.851q.162.485.338.969l-8.349,4.851q-.176-.484-.338-.969" transform="translate(-85.504 -214.032)" fill="#efefef"/>
      <path id="Path_789" data-name="Path 789" d="M89.286,247.118l8.349-4.851q.169.466.349.93l-8.349,4.851q-.18-.464-.349-.93" transform="translate(-87.112 -218.645)" fill="#f4f4f4"/>
      <path id="Path_790" data-name="Path 790" d="M91.3,252.473l8.349-4.851q.18.462.371.923L91.67,253.4q-.191-.46-.371-.923" transform="translate(-88.776 -223.071)" fill="#f9f9f9"/>
      <path id="Path_791" data-name="Path 791" d="M93.438,257.791l8.349-4.851q.189.455.39.909L93.828,258.7q-.2-.453-.39-.909" transform="translate(-90.544 -227.465)" fill="#fff"/>
      <path id="Path_792" data-name="Path 792" d="M95.683,263.026l8.349-4.851q.2.461.419.92L96.1,263.946q-.215-.458-.419-.92" transform="translate(-92.399 -231.792)" fill="#fff"/>
      <path id="Path_793" data-name="Path 793" d="M98.1,268.324l8.349-4.851q.236.5.486,1l-8.349,4.851q-.249-.5-.486-1" transform="translate(-94.392 -236.17)" fill="#fff"/>
      <path id="Path_794" data-name="Path 794" d="M100.894,274.106l8.349-4.851q.286.574.589,1.141l-8.349,4.851q-.3-.567-.589-1.141" transform="translate(-96.705 -240.948)" fill="#fff"/>
      <path id="Path_795" data-name="Path 795" d="M104.289,280.677l8.349-4.851q.451.844.937,1.671l-8.349,4.851q-.486-.826-.937-1.671" transform="translate(-99.511 -246.378)" fill="#fff"/>
      <path id="Path_796" data-name="Path 796" d="M109.689,290.3l8.349-4.851q.678,1.153,1.421,2.263l-8.349,4.851q-.742-1.109-1.421-2.264" transform="translate(-103.973 -254.333)" fill="#fff"/>
      <path id="Path_797" data-name="Path 797" d="M117.874,303.341l8.349-4.851q.583.871,1.2,1.711l-8.349,4.851q-.619-.839-1.2-1.711" transform="translate(-110.738 -265.108)" fill="#fff"/>
      <path id="Path_798" data-name="Path 798" d="M124.8,313.2l8.349-4.851q.413.56.841,1.1l-8.349,4.851q-.428-.543-.841-1.1" transform="translate(-116.46 -273.253)" fill="#fff"/>
      <path id="Path_799" data-name="Path 799" d="M129.641,319.553l8.349-4.851q.361.458.732.9l-8.348,4.851q-.371-.446-.732-.9" transform="translate(-120.462 -278.506)" fill="#fff"/>
      <path id="Path_800" data-name="Path 800" d="M133.857,324.764l8.349-4.851q.362.435.734.859l-8.349,4.851q-.372-.423-.734-.859" transform="translate(-123.946 -282.812)" fill="#fff"/>
      <path id="Path_801" data-name="Path 801" d="M138.084,329.71l8.349-4.851q.366.416.74.82l-8.349,4.851q-.374-.4-.74-.82" transform="translate(-127.439 -286.9)" fill="#fff"/>
      <path id="Path_802" data-name="Path 802" d="M142.345,334.431l8.349-4.851q.384.414.776.813l-8.349,4.851q-.392-.4-.776-.813" transform="translate(-130.961 -290.801)" fill="#f9f9f9"/>
      <path id="Path_803" data-name="Path 803" d="M146.815,339.116l8.349-4.851q.4.4.8.79l-8.349,4.851q-.4-.387-.8-.79" transform="translate(-134.655 -294.673)" fill="#f4f4f4"/>
      <path id="Path_804" data-name="Path 804" d="M151.416,343.665l8.349-4.851q.413.4.833.775l-8.349,4.851q-.421-.379-.833-.775" transform="translate(-138.457 -298.432)" fill="#efefef"/>
      <path id="Path_805" data-name="Path 805" d="M156.218,348.13l8.349-4.851q.417.376.842.735l-8.349,4.851q-.425-.359-.842-.735" transform="translate(-142.425 -302.122)" fill="#eaeaea"/>
      <path id="Path_806" data-name="Path 806" d="M161.071,352.364l8.349-4.851q.418.353.843.688l-8.349,4.851q-.425-.335-.843-.688" transform="translate(-146.436 -305.621)" fill="#e5e5e5"/>
      <path id="Path_807" data-name="Path 807" d="M165.926,356.328l8.349-4.851q.412.325.83.633l-8.348,4.851q-.418-.308-.83-.633" transform="translate(-150.448 -308.897)" fill="#dfdfdf"/>
      <path id="Path_808" data-name="Path 808" d="M170.708,359.975l8.349-4.851q.408.3.822.584l-8.349,4.851q-.414-.284-.822-.584" transform="translate(-154.4 -311.911)" fill="#dadada"/>
      <path id="Path_809" data-name="Path 809" d="M175.444,363.342l8.349-4.851q.4.273.8.53l-8.349,4.851q-.4-.257-.8-.53" transform="translate(-158.314 -314.693)" fill="#d5d5d5"/>
      <path id="Path_810" data-name="Path 810" d="M180.065,366.4l8.349-4.851q.4.253.8.489l-8.349,4.851q-.4-.236-.8-.489" transform="translate(-162.133 -317.217)" fill="#d0d0d0"/>
      <path id="Path_811" data-name="Path 811" d="M184.668,369.215l8.349-4.851.186.108-8.349,4.851-.186-.108" transform="translate(-165.936 -319.547)" fill="#cbcbcb"/>
    </g>
  </g>
  <g id="Group_1813" data-name="Group 1813" transform="translate(36.48 67.232)">
    <g id="Group_1812" data-name="Group 1812" clip-path="url(#clip-path-7)">
      <path id="Path_813" data-name="Path 813" d="M209.124,394.67l8.349-4.851q.424.149.842.276l-8.349,4.851q-.418-.126-.842-.275" transform="translate(-209.301 -389.38)" fill="#ad4047"/>
      <path id="Path_814" data-name="Path 814" d="M213.977,396.257l8.349-4.851q.438.132.87.24l-8.349,4.851q-.431-.108-.87-.24" transform="translate(-213.312 -390.692)" fill="#a83f45"/>
      <path id="Path_815" data-name="Path 815" d="M218.987,397.639l8.349-4.851q.436.109.864.192l-8.349,4.851q-.428-.084-.864-.192" transform="translate(-217.452 -391.834)" fill="#a33d43"/>
      <path id="Path_816" data-name="Path 816" d="M223.962,398.745l8.348-4.851q.466.091.922.152l-8.349,4.851q-.456-.061-.922-.152" transform="translate(-221.563 -392.748)" fill="#9e3b41"/>
      <path id="Path_817" data-name="Path 817" d="M229.275,399.62l8.349-4.851q.474.064.937.1l-8.349,4.851q-.463-.032-.937-.1" transform="translate(-225.954 -393.471)" fill="#99393f"/>
      <path id="Path_818" data-name="Path 818" d="M234.674,400.171l8.349-4.851q.5.035.992.033l-8.349,4.851q-.489,0-.992-.033" transform="translate(-230.416 -393.927)" fill="#94373d"/>
      <path id="Path_819" data-name="Path 819" d="M240.389,400.113l8.349-4.851q.556,0,1.094-.052l-8.349,4.851q-.537.049-1.094.052" transform="translate(-235.139 -393.836)" fill="#8f353b"/>
      <path id="Path_820" data-name="Path 820" d="M246.692,399.22l8.349-4.851a11.584,11.584,0,0,0,1.217-.177l-8.349,4.851a11.584,11.584,0,0,1-1.217.177" transform="translate(-240.348 -392.994)" fill="#8a3439"/>
      <path id="Path_821" data-name="Path 821" d="M253.7,397.109l8.349-4.851a10.733,10.733,0,0,0,1.477-.407L255.18,396.7a10.716,10.716,0,0,1-1.477.406" transform="translate(-246.142 -391.06)" fill="#853237"/>
      <path id="Path_822" data-name="Path 822" d="M262.21,392.936l8.349-4.851a10.163,10.163,0,0,0,1.711-.791l-8.349,4.851a10.161,10.161,0,0,1-1.711.791" transform="translate(-253.172 -387.293)" fill="#803035"/>
    </g>
  </g>
  <g id="Group_1815" data-name="Group 1815" transform="translate(19.509 25.959)">
    <g id="Group_1814" data-name="Group 1814" clip-path="url(#clip-path-8)">
      <rect id="Rectangle_670" data-name="Rectangle 670" width="45.748" height="47.511" transform="translate(-17.173 11.699) rotate(-34.265)" fill="url(#linear-gradient)"/>
    </g>
  </g>
  <g id="Group_1817" data-name="Group 1817" transform="translate(32.243 63.36)">
    <g id="Group_1816" data-name="Group 1816" clip-path="url(#clip-path-9)">
      <path id="Path_825" data-name="Path 825" d="M185.737,369.838l8.349-4.851q.3.174.6.336l-8.349,4.851q-.3-.162-.6-.336" transform="translate(-185.737 -364.987)" fill="#cbcbcb"/>
      <path id="Path_826" data-name="Path 826" d="M189.2,371.774l8.349-4.851q.389.211.774.4l-8.349,4.851q-.385-.19-.774-.4" transform="translate(-188.597 -366.587)" fill="#c6c6c6"/>
      <path id="Path_827" data-name="Path 827" d="M193.658,374.084l8.349-4.851q.385.19.766.361l-8.349,4.851q-.381-.171-.766-.361" transform="translate(-192.283 -368.496)" fill="#c1c1c1"/>
      <path id="Path_828" data-name="Path 828" d="M198.07,376.163l8.349-4.851q.381.17.757.321l-8.349,4.851q-.376-.151-.757-.321" transform="translate(-195.929 -370.214)" fill="#bcbcbc"/>
      <path id="Path_829" data-name="Path 829" d="M202.431,378.012l8.349-4.851q.385.154.764.287L203.2,378.3q-.379-.134-.764-.287" transform="translate(-199.533 -371.742)" fill="#b7b7b7"/>
      <path id="Path_830" data-name="Path 830" d="M206.833,379.668l8.349-4.851q.382.134.759.248l-8.349,4.851q-.377-.114-.759-.248" transform="translate(-203.171 -373.11)" fill="#b2b2b2"/>
      <path id="Path_831" data-name="Path 831" d="M211.2,381.1l8.349-4.851q.395.119.783.216l-8.349,4.851q-.388-.1-.783-.216" transform="translate(-206.782 -374.291)" fill="#acacac"/>
      <path id="Path_832" data-name="Path 832" d="M215.714,382.341l8.349-4.851q.392.1.778.173l-8.349,4.851q-.385-.075-.778-.173" transform="translate(-210.51 -375.319)" fill="#a7a7a7"/>
      <path id="Path_833" data-name="Path 833" d="M220.194,383.337l8.349-4.851q.42.082.831.137l-8.349,4.851q-.411-.055-.831-.137" transform="translate(-214.213 -376.142)" fill="#a2a2a2"/>
      <path id="Path_834" data-name="Path 834" d="M224.979,384.126l8.349-4.851q.427.057.844.086l-8.349,4.851q-.417-.029-.844-.086" transform="translate(-218.167 -376.794)" fill="#9d9d9d"/>
      <path id="Path_835" data-name="Path 835" d="M229.841,384.622l8.349-4.851q.453.031.893.029l-8.349,4.851q-.441,0-.893-.03" transform="translate(-222.185 -377.204)" fill="#989898"/>
      <path id="Path_836" data-name="Path 836" d="M234.988,384.57l8.349-4.851q.5,0,.985-.047l-8.349,4.851q-.484.044-.985.047" transform="translate(-226.438 -377.123)" fill="#939393"/>
      <path id="Path_837" data-name="Path 837" d="M240.664,383.766l8.349-4.851a10.4,10.4,0,0,0,1.1-.159l-8.349,4.851a10.447,10.447,0,0,1-1.1.159" transform="translate(-231.129 -376.365)" fill="#8e8e8e"/>
      <path id="Path_838" data-name="Path 838" d="M246.977,381.864l8.349-4.851a9.641,9.641,0,0,0,1.33-.366l-8.349,4.851a9.667,9.667,0,0,1-1.33.366" transform="translate(-236.346 -374.623)" fill="#898989"/>
      <path id="Path_839" data-name="Path 839" d="M254.638,378.107l8.349-4.851a9.164,9.164,0,0,0,1.541-.713l-8.349,4.851a9.135,9.135,0,0,1-1.541.713" transform="translate(-242.677 -371.231)" fill="#848484"/>
    </g>
  </g>
  <g id="Group_1819" data-name="Group 1819" transform="translate(18.868 17.151)">
    <g id="Group_1818" data-name="Group 1818" clip-path="url(#clip-path-10)">
      <path id="Path_841" data-name="Path 841" d="M108.69,107.653l8.349-4.851a9.139,9.139,0,0,1,1.541-.712l-8.349,4.851a9.152,9.152,0,0,0-1.541.712" transform="translate(-108.69 -101.518)" fill="#803035"/>
      <path id="Path_842" data-name="Path 842" d="M117.566,105.2l8.349-4.851a9.655,9.655,0,0,1,1.33-.366l-8.349,4.851a9.66,9.66,0,0,0-1.33.366" transform="translate(-116.025 -99.776)" fill="#853237"/>
      <path id="Path_843" data-name="Path 843" d="M125.225,104.076l8.348-4.851a10.358,10.358,0,0,1,1.1-.159l-8.349,4.851a10.446,10.446,0,0,0-1.1.159" transform="translate(-122.354 -99.019)" fill="#8a3439"/>
      <path id="Path_844" data-name="Path 844" d="M131.536,103.695l8.349-4.851q.484-.045.985-.047l-8.349,4.851q-.5,0-.985.047" transform="translate(-127.57 -98.797)" fill="#8f353b"/>
      <path id="Path_845" data-name="Path 845" d="M137.211,103.648,145.56,98.8q.44,0,.893.029l-8.349,4.851q-.453-.032-.893-.03" transform="translate(-132.26 -98.797)" fill="#94373d"/>
      <path id="Path_846" data-name="Path 846" d="M142.356,103.818l8.349-4.851q.417.029.844.086L143.2,103.9q-.427-.057-.844-.086" transform="translate(-136.512 -98.937)" fill="#99393f"/>
    </g>
  </g>
  <g id="Group_1821" data-name="Group 1821" transform="translate(24.981 17.202)">
    <g id="Group_1820" data-name="Group 1820" clip-path="url(#clip-path-11)">
      <path id="Path_848" data-name="Path 848" d="M142.356,103.818l8.349-4.851q.417.029.844.086L143.2,103.9q-.427-.057-.844-.086" transform="translate(-142.625 -98.989)" fill="#99393f"/>
      <path id="Path_849" data-name="Path 849" d="M147.217,104.314l8.349-4.851q.411.055.83.137l-8.349,4.851q-.42-.082-.83-.137" transform="translate(-146.642 -99.398)" fill="#9e3b41"/>
      <path id="Path_850" data-name="Path 850" d="M152,105.1l8.349-4.851q.385.075.778.173l-8.349,4.851q-.392-.1-.778-.173" transform="translate(-150.596 -100.05)" fill="#a33d43"/>
      <path id="Path_851" data-name="Path 851" d="M156.48,106.1l8.349-4.851q.388.1.783.216l-8.349,4.851q-.395-.119-.783-.216" transform="translate(-154.297 -100.873)" fill="#a83f45"/>
      <path id="Path_852" data-name="Path 852" d="M160.99,107.342l8.349-4.851q.377.114.758.248l-8.349,4.851q-.382-.134-.758-.248" transform="translate(-158.024 -101.901)" fill="#ad4047"/>
      <path id="Path_853" data-name="Path 853" d="M165.359,108.771l8.349-4.851q.379.133.764.287l-8.349,4.851q-.385-.154-.764-.287" transform="translate(-161.635 -103.082)" fill="#b24249"/>
      <path id="Path_854" data-name="Path 854" d="M169.76,110.426l8.349-4.851q.376.151.757.321l-8.349,4.851q-.381-.17-.757-.321" transform="translate(-165.272 -104.449)" fill="#b7444b"/>
      <path id="Path_855" data-name="Path 855" d="M174.12,112.275l8.349-4.851q.381.17.766.361l-8.349,4.851q-.385-.19-.766-.361" transform="translate(-168.875 -105.977)" fill="#bb464e"/>
      <path id="Path_856" data-name="Path 856" d="M178.531,114.354l8.349-4.851q.385.19.774.4l-8.349,4.851q-.389-.211-.774-.4" transform="translate(-172.52 -107.696)" fill="#c04850"/>
      <path id="Path_857" data-name="Path 857" d="M182.989,116.663l8.349-4.851q.3.162.6.336L183.59,117q-.3-.174-.6-.336" transform="translate(-176.204 -109.604)" fill="#c54a52"/>
    </g>
  </g>
  <g id="Group_1823" data-name="Group 1823" transform="translate(17.384 14.448)">
    <g id="Group_1822" data-name="Group 1822" clip-path="url(#clip-path-12)">
      <path id="Path_859" data-name="Path 859" d="M100.14,92.526l8.348-4.851a10.148,10.148,0,0,1,1.711-.791l-8.349,4.851a10.152,10.152,0,0,0-1.711.791" transform="translate(-100.14 -86.249)" fill="#848484"/>
      <path id="Path_860" data-name="Path 860" d="M110,89.8l8.349-4.851a10.706,10.706,0,0,1,1.476-.406l-8.349,4.851A10.737,10.737,0,0,0,110,89.8" transform="translate(-108.284 -84.315)" fill="#898989"/>
      <path id="Path_861" data-name="Path 861" d="M118.5,88.555l8.349-4.851a11.532,11.532,0,0,1,1.217-.177l-8.349,4.851a11.536,11.536,0,0,0-1.217.177" transform="translate(-115.313 -83.475)" fill="#8e8e8e"/>
      <path id="Path_862" data-name="Path 862" d="M125.508,88.13l8.349-4.851q.537-.049,1.094-.052L126.6,88.078q-.556,0-1.094.052" transform="translate(-121.104 -83.227)" fill="#939393"/>
      <path id="Path_863" data-name="Path 863" d="M131.808,88.079l8.349-4.851q.489,0,.992.033L132.8,88.111q-.5-.035-.992-.033" transform="translate(-126.31 -83.227)" fill="#989898"/>
      <path id="Path_864" data-name="Path 864" d="M137.522,88.268l8.349-4.851q.463.032.937.1l-8.349,4.851q-.474-.064-.937-.1" transform="translate(-131.032 -83.384)" fill="#9d9d9d"/>
      <path id="Path_865" data-name="Path 865" d="M142.92,88.818l8.349-4.851q.456.061.922.152l-8.349,4.851q-.466-.091-.922-.152" transform="translate(-135.493 -83.839)" fill="#a2a2a2"/>
      <path id="Path_866" data-name="Path 866" d="M148.231,89.694l8.349-4.851q.428.083.863.192l-8.349,4.851q-.435-.108-.863-.192" transform="translate(-139.882 -84.563)" fill="#a7a7a7"/>
      <path id="Path_867" data-name="Path 867" d="M153.2,90.8l8.349-4.851q.431.107.869.24l-8.349,4.851q-.438-.132-.869-.24" transform="translate(-143.992 -85.476)" fill="#acacac"/>
      <path id="Path_868" data-name="Path 868" d="M158.213,92.181l8.349-4.851q.418.126.842.275l-8.349,4.851q-.424-.149-.842-.275" transform="translate(-148.132 -86.618)" fill="#b2b2b2"/>
      <path id="Path_869" data-name="Path 869" d="M163.065,93.767l8.349-4.851q.421.148.848.319l-8.349,4.851q-.427-.171-.848-.319" transform="translate(-152.141 -87.929)" fill="#b7b7b7"/>
      <path id="Path_870" data-name="Path 870" d="M167.952,95.606l8.349-4.851q.418.167.841.356l-8.349,4.851q-.423-.189-.841-.357" transform="translate(-156.18 -89.448)" fill="#bcbcbc"/>
      <path id="Path_871" data-name="Path 871" d="M172.794,97.659l8.349-4.851q.423.189.85.4l-8.349,4.851q-.428-.211-.85-.4" transform="translate(-160.181 -91.145)" fill="#c1c1c1"/>
      <path id="Path_872" data-name="Path 872" d="M177.694,99.968l8.349-4.851q.428.211.86.445l-8.349,4.851q-.432-.234-.86-.445" transform="translate(-164.231 -93.053)" fill="#c6c6c6"/>
      <path id="Path_873" data-name="Path 873" d="M182.646,102.533l8.349-4.851q.332.18.667.373l-8.349,4.851q-.335-.193-.667-.373" transform="translate(-168.323 -95.173)" fill="#cbcbcb"/>
    </g>
  </g>
  <g id="Group_1825" data-name="Group 1825" transform="translate(45.745 47.897)">
    <g id="Group_1824" data-name="Group 1824" clip-path="url(#clip-path-13)">
      <path id="Path_875" data-name="Path 875" d="M292.383,275.549l8.348-4.851q.09.479.165.957l-8.349,4.851q-.075-.477-.165-.957" transform="translate(-287.372 -271.603)" fill="#ca4b54"/>
      <path id="Path_876" data-name="Path 876" d="M293.336,281.062l8.349-4.851q.075.477.135.951l-8.349,4.851q-.06-.474-.135-.951" transform="translate(-288.159 -276.159)" fill="#c54a52"/>
      <path id="Path_877" data-name="Path 877" d="M294.115,286.54l8.349-4.851q.059.465.1.926l-8.349,4.851q-.044-.461-.1-.926" transform="translate(-288.803 -280.686)" fill="#c04850"/>
      <path id="Path_878" data-name="Path 878" d="M294.709,291.877l8.349-4.851q.044.462.073.92l-8.349,4.851q-.029-.458-.073-.92" transform="translate(-289.294 -285.097)" fill="#bb464e"/>
      <path id="Path_879" data-name="Path 879" d="M295.131,297.175l8.349-4.851q.029.459.043.914l-8.349,4.851q-.014-.455-.043-.914" transform="translate(-289.643 -289.475)" fill="#b7444b"/>
      <path id="Path_880" data-name="Path 880" d="M295.377,302.439l8.349-4.851q.013.428.012.852c0,.018,0,.036,0,.054l-8.349,4.851c0-.018,0-.036,0-.054q0-.424-.012-.852" transform="translate(-289.846 -293.825)" fill="#b24249"/>
      <path id="Path_881" data-name="Path 881" d="M295.341,307.66l8.349-4.851q0,.463-.021.913l-8.349,4.851q.019-.449.021-.913" transform="translate(-289.799 -298.14)" fill="#ad4047"/>
      <path id="Path_882" data-name="Path 882" d="M295.057,312.919l8.349-4.851q-.019.453-.055.891L295,313.81q.036-.438.055-.891" transform="translate(-289.536 -302.486)" fill="#a83f45"/>
      <path id="Path_883" data-name="Path 883" d="M294.553,318.05,302.9,313.2q-.038.464-.094.911l-8.349,4.851q.056-.447.094-.911" transform="translate(-289.087 -306.726)" fill="#a33d43"/>
      <path id="Path_884" data-name="Path 884" d="M293.817,323.294l8.349-4.851q-.058.461-.135.9l-8.349,4.851q.077-.443.135-.9" transform="translate(-288.445 -311.06)" fill="#9e3b41"/>
      <path id="Path_885" data-name="Path 885" d="M292.8,328.5l8.349-4.851q-.082.474-.186.927l-8.349,4.851q.1-.453.186-.927" transform="translate(-287.559 -315.36)" fill="#99393f"/>
      <path id="Path_886" data-name="Path 886" d="M291.411,333.837l8.349-4.851q-.114.5-.252.967l-8.349,4.851q.138-.471.252-.967" transform="translate(-286.36 -319.773)" fill="#94373d"/>
      <path id="Path_887" data-name="Path 887" d="M289.582,339.406l8.348-4.851q-.151.514-.331,1l-8.349,4.851q.18-.483.331-1" transform="translate(-284.784 -324.375)" fill="#8f353b"/>
      <path id="Path_888" data-name="Path 888" d="M287.088,345.151l8.349-4.851q-.209.56-.454,1.078l-8.349,4.851q.246-.518.454-1.078" transform="translate(-282.621 -329.123)" fill="#8a3439"/>
      <path id="Path_889" data-name="Path 889" d="M283.223,351.361l8.348-4.851a11.951,11.951,0,0,1-.716,1.3l-8.349,4.851a12.006,12.006,0,0,0,.716-1.3" transform="translate(-279.21 -334.255)" fill="#853237"/>
      <path id="Path_890" data-name="Path 890" d="M266.813,358.845l8.349-4.851a9.678,9.678,0,0,1-3.3,3.22l-8.349,4.851a9.68,9.68,0,0,0,3.3-3.22" transform="translate(-263.516 -340.439)" fill="#803035"/>
    </g>
  </g>
  <g id="Group_1827" data-name="Group 1827" transform="translate(49.956 43.638)">
    <g id="Group_1826" data-name="Group 1826" clip-path="url(#clip-path-14)">
      <path id="Path_892" data-name="Path 892" d="M286.683,252.562l8.349-4.851q.154.5.293,1l-8.349,4.851q-.139-.5-.293-1" transform="translate(-286.872 -248.347)" fill="#de535c"/>
      <path id="Path_893" data-name="Path 893" d="M288.37,258.339l8.349-4.851q.14.5.264,1.007l-8.349,4.851q-.124-.5-.264-1.007" transform="translate(-288.266 -253.121)" fill="#d9515a"/>
      <path id="Path_894" data-name="Path 894" d="M289.894,264.138l8.349-4.851q.123.5.231.993l-8.349,4.851q-.108-.5-.231-.993" transform="translate(-289.526 -257.914)" fill="#d44f58"/>
      <path id="Path_895" data-name="Path 895" d="M291.227,269.856l8.348-4.851q.108.495.2.988l-8.349,4.852q-.093-.494-.2-.988" transform="translate(-290.627 -262.639)" fill="#cf4d56"/>
      <path id="Path_896" data-name="Path 896" d="M292.383,275.549l8.348-4.851q.09.479.165.957l-8.349,4.851q-.075-.477-.165-.957" transform="translate(-291.583 -267.344)" fill="#ca4b54"/>
    </g>
  </g>
  <g id="Group_1829" data-name="Group 1829" transform="translate(48.747 40.076)">
    <g id="Group_1828" data-name="Group 1828" clip-path="url(#clip-path-15)">
      <path id="Path_898" data-name="Path 898" d="M278.772,230.65l8.348-4.851q.192.46.371.923l-8.349,4.851q-.18-.462-.371-.923" transform="translate(-279.126 -226.677)" fill="#f25a64"/>
      <path id="Path_899" data-name="Path 899" d="M280.911,235.968l8.349-4.851q.18.464.349.929L281.26,236.9q-.169-.466-.349-.93" transform="translate(-280.893 -231.072)" fill="#ed5862"/>
      <path id="Path_900" data-name="Path 900" d="M282.923,241.322l8.349-4.851q.175.484.338.969l-8.349,4.851q-.163-.485-.338-.969" transform="translate(-282.556 -235.496)" fill="#e85660"/>
      <path id="Path_901" data-name="Path 901" d="M284.868,246.9l8.349-4.851q.164.491.315.982l-8.349,4.851q-.151-.491-.315-.982" transform="translate(-284.163 -240.108)" fill="#e3555e"/>
      <path id="Path_902" data-name="Path 902" d="M286.683,252.562l8.349-4.851q.154.5.293,1l-8.349,4.851q-.139-.5-.293-1" transform="translate(-285.663 -244.785)" fill="#de535c"/>
    </g>
  </g>
  <g id="Group_1831" data-name="Group 1831" transform="translate(48.076 38.452)">
    <g id="Group_1830" data-name="Group 1830" clip-path="url(#clip-path-16)">
      <path id="Path_904" data-name="Path 904" d="M276.527,225.416l8.349-4.851q.2.453.39.909l-8.349,4.851q-.189-.455-.39-.909" transform="translate(-276.599 -220.728)" fill="#f75c66"/>
      <path id="Path_905" data-name="Path 905" d="M278.772,230.65l8.348-4.851q.192.46.371.923l-8.349,4.851q-.18-.462-.371-.923" transform="translate(-278.454 -225.054)" fill="#f25a64"/>
    </g>
  </g>
  <g id="Group_1833" data-name="Group 1833" transform="translate(47.712 37.642)">
    <g id="Group_1832" data-name="Group 1832" clip-path="url(#clip-path-17)">
      <path id="Path_907" data-name="Path 907" d="M274.115,220.12l8.349-4.851q.215.458.419.919l-8.349,4.851q-.2-.461-.419-.919" transform="translate(-274.242 -215.541)" fill="#f87078"/>
      <path id="Path_908" data-name="Path 908" d="M276.527,225.416l8.349-4.851q.2.453.39.909l-8.349,4.851q-.189-.455-.39-.909" transform="translate(-276.235 -219.918)" fill="#f75c66"/>
    </g>
  </g>
  <g id="Group_1835" data-name="Group 1835" transform="translate(32.367 19.746)">
    <g id="Group_1834" data-name="Group 1834" clip-path="url(#clip-path-18)">
      <path id="Path_910" data-name="Path 910" d="M186.449,118.6l8.349-4.851.186.108-8.349,4.851-.186-.108" transform="translate(-186.449 -113.748)" fill="#c54a52"/>
      <path id="Path_911" data-name="Path 911" d="M187.519,119.222l8.349-4.851q.4.236.8.49l-8.348,4.851q-.4-.253-.8-.49" transform="translate(-187.333 -114.263)" fill="#ca4b54"/>
      <path id="Path_912" data-name="Path 912" d="M192.128,122.044l8.349-4.851q.4.257.8.531l-8.349,4.851q-.4-.273-.8-.531" transform="translate(-191.142 -116.595)" fill="#cf4d56"/>
      <path id="Path_913" data-name="Path 913" d="M196.754,125.1l8.349-4.851q.414.284.823.585l-8.349,4.851q-.409-.3-.823-.585" transform="translate(-194.965 -119.122)" fill="#d44f58"/>
      <path id="Path_914" data-name="Path 914" d="M201.495,128.472l8.349-4.851q.418.308.831.634l-8.348,4.851q-.412-.325-.831-.634" transform="translate(-198.883 -121.907)" fill="#d9515a"/>
      <path id="Path_915" data-name="Path 915" d="M206.281,132.122l8.349-4.851q.425.335.843.688l-8.349,4.851q-.418-.353-.843-.688" transform="translate(-202.838 -124.923)" fill="#de535c"/>
      <path id="Path_916" data-name="Path 916" d="M211.138,136.088l8.349-4.851q.425.359.843.735l-8.349,4.851q-.418-.376-.843-.735" transform="translate(-206.852 -128.201)" fill="#e3555e"/>
      <path id="Path_917" data-name="Path 917" d="M215.993,140.323l8.349-4.851q.421.379.834.775l-8.349,4.851q-.413-.4-.834-.775" transform="translate(-210.864 -131.701)" fill="#e85660"/>
      <path id="Path_918" data-name="Path 918" d="M220.8,144.79l8.349-4.851q.4.388.8.791l-8.349,4.851q-.4-.4-.8-.791" transform="translate(-214.834 -135.392)" fill="#ed5862"/>
      <path id="Path_919" data-name="Path 919" d="M225.407,149.348l8.349-4.851q.393.4.777.814l-8.349,4.851q-.384-.414-.777-.814" transform="translate(-218.644 -139.159)" fill="#f25a64"/>
      <path id="Path_920" data-name="Path 920" d="M229.881,154.038l8.349-4.851q.373.4.738.818l-8.349,4.851q-.365-.415-.738-.818" transform="translate(-222.341 -143.035)" fill="#f75c66"/>
      <path id="Path_921" data-name="Path 921" d="M234.132,158.748l8.349-4.851q.371.422.733.857l-8.349,4.851q-.362-.435-.733-.857" transform="translate(-225.854 -146.927)" fill="#f87078"/>
      <path id="Path_922" data-name="Path 922" d="M238.354,163.687l8.349-4.851q.371.446.732.9l-8.349,4.851q-.361-.458-.732-.9" transform="translate(-229.344 -151.009)" fill="#f87880"/>
      <path id="Path_923" data-name="Path 923" d="M242.568,168.9l8.349-4.851q.431.547.847,1.111l-8.349,4.851q-.416-.564-.847-1.111" transform="translate(-232.826 -155.313)" fill="#f87e85"/>
      <path id="Path_924" data-name="Path 924" d="M247.445,175.3l8.349-4.851q.622.843,1.208,1.721l-8.349,4.851q-.585-.876-1.208-1.721" transform="translate(-236.856 -160.602)" fill="#f9828a"/>
      <path id="Path_925" data-name="Path 925" d="M254.4,185.208l8.349-4.851q.736,1.1,1.41,2.248l-8.349,4.851q-.674-1.145-1.41-2.248" transform="translate(-242.607 -168.794)" fill="#f9878e"/>
      <path id="Path_926" data-name="Path 926" d="M262.528,198.155l8.349-4.851q.485.825.936,1.669l-8.349,4.851q-.451-.843-.936-1.669" transform="translate(-249.321 -179.493)" fill="#f9828a"/>
      <path id="Path_927" data-name="Path 927" d="M267.922,207.769l8.349-4.851q.3.566.589,1.14l-8.349,4.851q-.286-.573-.589-1.14" transform="translate(-253.779 -187.438)" fill="#f87e85"/>
      <path id="Path_928" data-name="Path 928" d="M271.316,214.337l8.349-4.851q.249.5.486,1l-8.349,4.851q-.236-.5-.486-1" transform="translate(-256.583 -192.866)" fill="#f87880"/>
      <path id="Path_929" data-name="Path 929" d="M274.115,220.12l8.349-4.851q.215.458.419.919l-8.349,4.851q-.2-.461-.419-.919" transform="translate(-258.897 -197.645)" fill="#f87078"/>
    </g>
  </g>
  <g id="Group_1837" data-name="Group 1837" transform="translate(32.374 17.33)">
    <g id="Group_1836" data-name="Group 1836" clip-path="url(#clip-path-19)">
      <path id="Path_931" data-name="Path 931" d="M186.489,104.683l8.349-4.851.206.12L186.7,104.8l-.206-.12" transform="translate(-186.489 -99.832)" fill="#cbcbcb"/>
      <path id="Path_932" data-name="Path 932" d="M187.677,105.375l8.349-4.851q.446.262.888.544l-8.349,4.851q-.442-.281-.888-.544" transform="translate(-187.471 -100.404)" fill="#d0d0d0"/>
      <path id="Path_933" data-name="Path 933" d="M192.792,108.508l8.349-4.851q.448.285.891.589l-8.349,4.851q-.443-.3-.891-.589" transform="translate(-191.698 -102.993)" fill="#d5d5d5"/>
      <path id="Path_934" data-name="Path 934" d="M197.928,111.9l8.349-4.851q.46.315.913.649l-8.349,4.851q-.454-.334-.913-.649" transform="translate(-195.942 -105.798)" fill="#dadada"/>
      <path id="Path_935" data-name="Path 935" d="M203.19,115.642l8.349-4.851q.465.342.922.7l-8.349,4.851q-.458-.361-.922-.7" transform="translate(-200.291 -108.889)" fill="#dfdfdf"/>
      <path id="Path_936" data-name="Path 936" d="M208.5,119.7l8.349-4.851q.472.372.936.764l-8.349,4.851q-.464-.392-.936-.765" transform="translate(-204.682 -112.238)" fill="#e5e5e5"/>
      <path id="Path_937" data-name="Path 937" d="M213.9,124.1l8.349-4.851q.472.4.936.816l-8.349,4.851q-.463-.418-.936-.816" transform="translate(-209.139 -115.877)" fill="#eaeaea"/>
      <path id="Path_938" data-name="Path 938" d="M219.288,128.8l8.349-4.851q.467.421.926.861l-8.349,4.851q-.458-.44-.926-.861" transform="translate(-213.594 -119.764)" fill="#efefef"/>
      <path id="Path_939" data-name="Path 939" d="M224.622,133.762l8.349-4.851q.448.43.887.877l-8.349,4.851q-.439-.447-.887-.877" transform="translate(-218.002 -123.863)" fill="#f4f4f4"/>
      <path id="Path_940" data-name="Path 940" d="M229.732,138.814l8.349-4.851q.436.443.862.9l-8.349,4.851q-.426-.46-.862-.9" transform="translate(-222.225 -128.038)" fill="#f9f9f9"/>
      <path id="Path_941" data-name="Path 941" d="M234.7,144.017l8.349-4.851q.415.448.821.91l-8.349,4.851q-.406-.462-.821-.91" transform="translate(-226.328 -132.338)" fill="#fff"/>
      <path id="Path_942" data-name="Path 942" d="M239.429,149.26l8.349-4.851q.413.47.815.954l-8.349,4.851q-.4-.484-.815-.954" transform="translate(-230.239 -136.671)" fill="#fff"/>
      <path id="Path_943" data-name="Path 943" d="M244.124,154.754l8.349-4.851q.412.5.813,1l-8.349,4.851q-.4-.509-.813-1" transform="translate(-234.119 -141.211)" fill="#fff"/>
      <path id="Path_944" data-name="Path 944" d="M248.806,160.54l8.349-4.851q.475.6.934,1.225l-8.349,4.851q-.458-.622-.934-1.226" transform="translate(-237.988 -145.992)" fill="#fff"/>
      <path id="Path_945" data-name="Path 945" d="M254.185,167.6l8.349-4.851q.687.932,1.335,1.9L255.52,169.5q-.647-.968-1.335-1.9" transform="translate(-242.433 -151.827)" fill="#fff"/>
      <path id="Path_946" data-name="Path 946" d="M261.875,178.546l8.349-4.851q.824,1.232,1.578,2.514l-8.349,4.851q-.754-1.281-1.578-2.514" transform="translate(-248.788 -160.873)" fill="#fff"/>
      <path id="Path_947" data-name="Path 947" d="M270.966,193.028l8.349-4.851q.54.917,1.041,1.856l-8.349,4.851q-.5-.938-1.041-1.856" transform="translate(-256.301 -172.841)" fill="#fff"/>
      <path id="Path_948" data-name="Path 948" d="M276.964,203.717l8.349-4.851q.336.629.654,1.267l-8.349,4.851q-.318-.637-.654-1.267" transform="translate(-261.258 -181.674)" fill="#fff"/>
      <path id="Path_949" data-name="Path 949" d="M280.734,211.015l8.349-4.851q.277.555.54,1.115l-8.349,4.851q-.262-.56-.54-1.115" transform="translate(-264.374 -187.705)" fill="#fff"/>
      <path id="Path_950" data-name="Path 950" d="M283.842,217.437l8.349-4.851q.238.509.465,1.021l-8.349,4.851q-.227-.512-.465-1.021" transform="translate(-266.942 -193.012)" fill="#fff"/>
      <path id="Path_951" data-name="Path 951" d="M286.522,223.32l8.349-4.851q.222.5.433,1.009l-8.349,4.851q-.21-.506-.433-1.009" transform="translate(-269.157 -197.874)" fill="#fff"/>
      <path id="Path_952" data-name="Path 952" d="M289.014,229.134l8.349-4.851q.212.511.412,1.025l-8.349,4.851q-.2-.514-.412-1.025" transform="translate(-271.216 -202.679)" fill="#f9f9f9"/>
      <path id="Path_953" data-name="Path 953" d="M291.39,235.04l8.349-4.851q.2.515.388,1.032l-8.349,4.851q-.187-.517-.388-1.033" transform="translate(-273.18 -207.56)" fill="#f4f4f4"/>
      <path id="Path_954" data-name="Path 954" d="M293.625,240.988l8.349-4.851q.195.537.375,1.076L294,242.064q-.18-.539-.375-1.076" transform="translate(-275.027 -212.475)" fill="#efefef"/>
      <path id="Path_955" data-name="Path 955" d="M295.786,247.187l8.349-4.851q.183.545.35,1.091l-8.348,4.851q-.167-.546-.35-1.091" transform="translate(-276.813 -217.598)" fill="#eaeaea"/>
      <path id="Path_956" data-name="Path 956" d="M297.8,253.473l8.349-4.851q.171.557.325,1.114l-8.349,4.851q-.154-.557-.325-1.114" transform="translate(-278.479 -222.793)" fill="#e5e5e5"/>
      <path id="Path_957" data-name="Path 957" d="M299.676,259.891l8.349-4.851q.155.559.294,1.118l-8.349,4.851q-.139-.559-.294-1.118" transform="translate(-280.027 -228.097)" fill="#dfdfdf"/>
      <path id="Path_958" data-name="Path 958" d="M301.368,266.333l8.349-4.851q.137.552.257,1.1l-8.349,4.851q-.12-.551-.257-1.1" transform="translate(-281.426 -233.42)" fill="#dadada"/>
      <path id="Path_959" data-name="Path 959" d="M302.849,272.685l8.349-4.851q.12.55.223,1.1l-8.349,4.851q-.1-.548-.223-1.1" transform="translate(-282.649 -238.67)" fill="#d5d5d5"/>
      <path id="Path_960" data-name="Path 960" d="M304.133,279.009l8.349-4.851q.1.533.184,1.063l-8.349,4.851q-.084-.53-.184-1.063" transform="translate(-283.711 -243.896)" fill="#d0d0d0"/>
      <path id="Path_961" data-name="Path 961" d="M305.192,285.133l8.349-4.851q.084.529.15,1.056l-8.349,4.851q-.067-.526-.15-1.056" transform="translate(-284.586 -248.957)" fill="#cbcbcb"/>
      <path id="Path_962" data-name="Path 962" d="M306.058,291.217l8.349-4.851q.065.516.115,1.029l-8.349,4.851q-.049-.513-.115-1.029" transform="translate(-285.301 -253.985)" fill="#c6c6c6"/>
      <path id="Path_963" data-name="Path 963" d="M306.718,297.145l8.349-4.851q.049.513.081,1.021l-8.349,4.851q-.032-.509-.081-1.022" transform="translate(-285.847 -258.884)" fill="#c1c1c1"/>
      <path id="Path_964" data-name="Path 964" d="M307.186,303.03l8.349-4.851q.032.51.047,1.015l-8.349,4.851q-.015-.5-.047-1.015" transform="translate(-286.234 -263.747)" fill="#bcbcbc"/>
      <path id="Path_965" data-name="Path 965" d="M307.459,308.876l8.349-4.851q.014.475.013.946c0,.02,0,.04,0,.06l-8.349,4.851c0-.02,0-.04,0-.06q0-.471-.013-.946" transform="translate(-286.459 -268.578)" fill="#b7b7b7"/>
      <path id="Path_966" data-name="Path 966" d="M307.419,314.675l8.349-4.851q0,.515-.024,1.014l-8.349,4.851q.021-.5.024-1.014" transform="translate(-286.406 -273.37)" fill="#b2b2b2"/>
      <path id="Path_967" data-name="Path 967" d="M307.1,320.518l8.349-4.851q-.021.5-.061.99l-8.349,4.851q.04-.487.061-.99" transform="translate(-286.115 -278.199)" fill="#acacac"/>
      <path id="Path_968" data-name="Path 968" d="M306.544,326.22l8.349-4.851q-.042.515-.1,1.012l-8.349,4.851q.062-.5.1-1.012" transform="translate(-285.616 -282.911)" fill="#a7a7a7"/>
      <path id="Path_969" data-name="Path 969" d="M305.725,332.048l8.349-4.851q-.064.512-.15,1l-8.349,4.851q.085-.492.15-1" transform="translate(-284.902 -287.727)" fill="#a2a2a2"/>
      <path id="Path_970" data-name="Path 970" d="M304.591,337.83l8.349-4.851q-.092.527-.207,1.03l-8.349,4.851q.115-.5.207-1.03" transform="translate(-283.918 -292.506)" fill="#9d9d9d"/>
      <path id="Path_971" data-name="Path 971" d="M303.052,343.762l8.349-4.851q-.126.551-.28,1.074l-8.349,4.851q.154-.523.28-1.074" transform="translate(-282.586 -297.408)" fill="#989898"/>
      <path id="Path_972" data-name="Path 972" d="M301.021,349.95l8.349-4.851q-.168.571-.368,1.108l-8.349,4.851q.2-.536.368-1.108" transform="translate(-280.835 -302.522)" fill="#939393"/>
      <path id="Path_973" data-name="Path 973" d="M298.249,356.332l8.348-4.851q-.232.622-.505,1.2l-8.349,4.851q.273-.575.505-1.2" transform="translate(-278.431 -307.796)" fill="#8e8e8e"/>
      <path id="Path_974" data-name="Path 974" d="M293.956,363.231l8.349-4.851a13.278,13.278,0,0,1-.8,1.443l-8.349,4.851a13.261,13.261,0,0,0,.8-1.443" transform="translate(-274.642 -313.497)" fill="#898989"/>
      <path id="Path_975" data-name="Path 975" d="M275.731,371.545l8.349-4.851a10.748,10.748,0,0,1-3.661,3.576l-8.349,4.851a10.75,10.75,0,0,0,3.661-3.576" transform="translate(-257.214 -320.368)" fill="#848484"/>
    </g>
  </g>
  <g id="Group_1839" data-name="Group 1839" transform="translate(9.425)">
    <g id="Group_1838" data-name="Group 1838" clip-path="url(#clip-path-20)">
      <rect id="Rectangle_671" data-name="Rectangle 671" width="109.132" height="121.144" transform="matrix(0.842, -0.539, 0.539, 0.842, -46.844, 29.986)" fill="#a51037"/>
    </g>
  </g>
  <g id="Group_1841" data-name="Group 1841" transform="translate(0 4.851)">
    <g id="Group_1840" data-name="Group 1840" clip-path="url(#clip-path-21)">
      <rect id="Rectangle_672" data-name="Rectangle 672" width="95.717" height="115.66" transform="translate(-32.969 12.555) rotate(-20.847)" fill="#f2154f"/>
    </g>
  </g>
  <g id="Group_1843" data-name="Group 1843">
    <g id="Group_1842" data-name="Group 1842" clip-path="url(#clip-path-22)">
      <path id="Path_979" data-name="Path 979" d="M85.821,114.056c11.624,6.711,21.051,23.037,21.013,36.393s-9.526,18.763-21.15,12.052-21.047-23.035-21.009-36.391,9.522-18.765,21.146-12.054m-.131,46.03c10.467,6.043,19.01,1.174,19.045-10.848s-8.454-26.723-18.921-32.766-19.007-1.176-19.041,10.85,8.454,26.723,18.917,32.764" transform="translate(-53.447 -91.875)" fill="#fff"/>
    </g>
  </g>
</svg>
