<svg id="location_2_fill" xmlns="http://www.w3.org/2000/svg" width="20" height="20" viewBox="0 0 20 20">
  <path id="MingCute" d="M20,0V20H0V0ZM10.495,19.382h-.01l-.059.03-.016,0h0l-.013,0-.059-.03a.018.018,0,0,0-.02,0l0,.009-.014.356,0,.017.009.01.086.062.012,0h0l.01,0,.086-.062.011-.013h0l0-.014-.014-.356a.018.018,0,0,0-.013-.015Zm.221-.094-.012,0-.154.077-.008.009h0l0,.009.015.358,0,.011h0l.007.006.167.077a.021.021,0,0,0,.024-.007l0-.012-.028-.512a.021.021,0,0,0-.016-.018Zm-.6,0a.019.019,0,0,0-.023,0l0,.012-.028.512a.019.019,0,0,0,.014.02h.013l.167-.077.008-.007h0l0-.01.015-.358,0-.01h0l-.008-.007Z" fill="none"/>
  <path id="形状" d="M6.04,13.712a.744.744,0,0,1,.93.544.809.809,0,0,1-.51.992,3.463,3.463,0,0,0-.818.352,3.536,3.536,0,0,0,.852.362A12.606,12.606,0,0,0,10,16.4a12.606,12.606,0,0,0,3.506-.438,3.535,3.535,0,0,0,.852-.362,3.462,3.462,0,0,0-.818-.352.809.809,0,0,1-.51-.992.744.744,0,0,1,.93-.544,4.531,4.531,0,0,1,1.312.613,1.482,1.482,0,0,1-.015,2.561,4.63,4.63,0,0,1-1.339.615A13.983,13.983,0,0,1,10,18a13.983,13.983,0,0,1-3.918-.5,4.629,4.629,0,0,1-1.339-.615,1.482,1.482,0,0,1-.015-2.561A4.532,4.532,0,0,1,6.04,13.712ZM10,2a5.822,5.822,0,0,1,5.625,6,7.351,7.351,0,0,1-2.137,4.911A12.49,12.49,0,0,1,12.1,14.2c-.445.357-1.464,1.025-1.464,1.025a1.213,1.213,0,0,1-1.268,0A15.5,15.5,0,0,1,7.9,14.2a12.489,12.489,0,0,1-1.39-1.293A7.351,7.351,0,0,1,4.375,8,5.822,5.822,0,0,1,10,2Zm0,4.4A1.552,1.552,0,0,0,8.5,8,1.552,1.552,0,0,0,10,9.6,1.552,1.552,0,0,0,11.5,8,1.552,1.552,0,0,0,10,6.4Z"/>
</svg>
