<svg xmlns="http://www.w3.org/2000/svg" xmlns:xlink="http://www.w3.org/1999/xlink" width="109.813" height="70.502" viewBox="0 0 109.813 70.502">
  <defs>
    <clipPath id="clip-path">
      <rect id="Rectangle_674" data-name="Rectangle 674" width="109.813" height="70.502" fill="#ffac00"/>
    </clipPath>
  </defs>
  <g id="Group_1845" data-name="Group 1845" clip-path="url(#clip-path)">
    <path id="login" d="M7.8,60.431A5.036,5.036,0,0,0,7.8,70.5H17.992a5.036,5.036,0,0,0,0-10.072H7.8ZM5.026,20.143a5.036,5.036,0,0,0,0,10.072H15.215a5.036,5.036,0,0,0,0-10.072H5.026Zm69.6,39.779A24.671,24.671,0,1,0,50,35.251,24.647,24.647,0,0,0,74.628,59.922m0-43.53a18.839,18.839,0,0,1,18.6,15.954h-11.4a7.762,7.762,0,0,0-14.41,0h-11.4a18.84,18.84,0,0,1,18.6-15.954m18.6,21.765H89.272A11.8,11.8,0,0,0,77.528,49.966v3.922a18.855,18.855,0,0,0,15.7-15.732M74.628,32.2a3.05,3.05,0,1,1-3.044,3.05,3.047,3.047,0,0,1,3.044-3.05m-18.6,5.955h3.958A11.8,11.8,0,0,1,71.728,49.966v3.922a18.856,18.856,0,0,1-15.7-15.732M74.628,0H31.794a5.036,5.036,0,0,0,0,10.072H44.745a5.036,5.036,0,0,1,0,10.072H30.117a5.036,5.036,0,0,0,0,10.072h8.016a5.036,5.036,0,0,1,0,10.072H16.716a5.036,5.036,0,0,0,0,10.072H43.077a5.036,5.036,0,0,1,0,10.072H35.51a5.036,5.036,0,0,0,0,10.072H74.628a35.2,35.2,0,0,0,34.829-30.215,35.748,35.748,0,0,0,0-10.072A35.218,35.218,0,0,0,74.628,0" transform="translate(0)" fill="#ffac00" fill-rule="evenodd"/>
  </g>
</svg>
