<svg id="icon_24_logout" data-name="icon/24/logout" xmlns="http://www.w3.org/2000/svg" width="24" height="24" viewBox="0 0 24 24">
  <rect id="base" width="24" height="24" fill="none"/>
  <path id="Combined_Shape" data-name="Combined Shape" d="M3,15a3,3,0,0,1-3-3V3A3,3,0,0,1,3,0H7.5a3,3,0,0,1,3,3V3.75a.75.75,0,0,1-1.5,0V3A1.5,1.5,0,0,0,7.5,1.5H3A1.5,1.5,0,0,0,1.5,3v9A1.5,1.5,0,0,0,3,13.5H7.5A1.5,1.5,0,0,0,9,12v-.75a.75.75,0,0,1,1.5,0V12a3,3,0,0,1-3,3Zm8.469-4.72a.75.75,0,0,1,0-1.061l.969-.969H5.246a.75.75,0,0,1,0-1.5h7.192l-.97-.969A.75.75,0,1,1,12.53,4.72l2.251,2.25a.751.751,0,0,1,0,1.061l-2.251,2.25a.751.751,0,0,1-1.061,0Z" transform="translate(5 5)" fill="#fff"/>
</svg>
