<svg id="Group_1880" data-name="Group 1880" xmlns="http://www.w3.org/2000/svg" xmlns:xlink="http://www.w3.org/1999/xlink" width="12.956" height="12" viewBox="0 0 12.956 12">
  <defs>
    <clipPath id="clip-path">
      <rect id="Rectangle_686" data-name="Rectangle 686" width="12.956" height="12" fill="none"/>
    </clipPath>
  </defs>
  <g id="Group_1879" data-name="Group 1879" clip-path="url(#clip-path)">
    <path id="Path_983" data-name="Path 983" d="M11.429,2h-.446l-.1-.832A1.333,1.333,0,0,0,9.556,0H3.4A1.333,1.333,0,0,0,2.077,1.168L1.973,2H1.527A1.527,1.527,0,0,0,.03,3.826l.134.67A2.7,2.7,0,0,0,2.145,6.583a4.789,4.789,0,0,0,3.666,2.7v1.379h-2a.667.667,0,1,0,0,1.333H9.145a.667.667,0,1,0,0-1.333h-2V9.287a4.79,4.79,0,0,0,3.667-2.7A2.7,2.7,0,0,0,12.792,4.5l.134-.67A1.526,1.526,0,0,0,11.429,2m-9.7,1.953a4.853,4.853,0,0,0-.033.8,1.365,1.365,0,0,1-.223-.521l-.134-.67a.193.193,0,0,1,.189-.231h.279Zm7.433-.085-.594.579a.19.19,0,0,0-.054.167l.14.818a.854.854,0,0,1-1.241.9l-.735-.386a.188.188,0,0,0-.175,0l-.735.385a.854.854,0,0,1-1.24-.9l.14-.818a.19.19,0,0,0-.054-.167L4.02,3.868A.855.855,0,0,1,4.494,2.41l.822-.119a.184.184,0,0,0,.141-.1l.368-.744a.855.855,0,0,1,1.533,0l.367.744a.187.187,0,0,0,.141.1l.822.12a.855.855,0,0,1,.473,1.459m2.323.366-.028.113a1.361,1.361,0,0,1-.2.407,4.854,4.854,0,0,0-.034-.8l-.077-.62h.279l.044,0a.194.194,0,0,1,.145.227Z" transform="translate(0)" fill-rule="evenodd"/>
    <path id="Path_984" data-name="Path 984" d="M10.807,3.887l-.821-.119A.855.855,0,0,1,9.341,3.3l-.367-.745a.188.188,0,0,0-.337,0L8.269,3.3a.851.851,0,0,1-.643.467L6.8,3.887a.189.189,0,0,0-.1.321l.595.579a.856.856,0,0,1,.246.757L7.4,6.362a.188.188,0,0,0,.273.2l.735-.386a.857.857,0,0,1,.8,0l.734.386a.187.187,0,0,0,.2-.014.185.185,0,0,0,.075-.185l-.141-.818a.856.856,0,0,1,.246-.757l.594-.579a.188.188,0,0,0-.1-.321" transform="translate(-2.214 -0.817)" fill="#ffad00" fill-rule="evenodd"/>
  </g>
</svg>
