<svg xmlns="http://www.w3.org/2000/svg" width="9" height="9" viewBox="0 0 9 9">
  <path id="refresh_FILL0_wght400_GRAD0_opsz24" d="M8.5,13A4.466,4.466,0,0,1,4,8.5,4.466,4.466,0,0,1,8.5,4a4.451,4.451,0,0,1,1.856.4,4.285,4.285,0,0,1,1.519,1.146V4H13V7.938H9.062V6.813h2.363a3.284,3.284,0,0,0-1.23-1.238A3.336,3.336,0,0,0,8.5,5.125,3.361,3.361,0,0,0,5.125,8.5,3.361,3.361,0,0,0,8.5,11.875a3.347,3.347,0,0,0,3.178-2.25h1.181a4.441,4.441,0,0,1-1.6,2.433A4.364,4.364,0,0,1,8.5,13Z" transform="translate(-4 -4)"/>
</svg>
