<svg xmlns="http://www.w3.org/2000/svg" width="16" height="21.15" viewBox="0 0 16 21.15">
  <path id="autorenew_FILL1_wght400_GRAD0_opsz24" d="M4.475,14.7a6.812,6.812,0,0,1-.362-1.313A7.932,7.932,0,0,1,4,12.05a7.8,7.8,0,0,1,2.325-5.7A7.679,7.679,0,0,1,12,4h.175l-.9-.9A.948.948,0,0,1,11,2.4a.99.99,0,0,1,1.675-.7l2.6,2.6a.883.883,0,0,1,.213.325,1.165,1.165,0,0,1,0,.75.883.883,0,0,1-.213.325l-2.6,2.6a.99.99,0,0,1-1.4-1.4l.9-.9H12A5.766,5.766,0,0,0,7.75,7.762,5.859,5.859,0,0,0,6,12.05a5.342,5.342,0,0,0,.088.975,5.734,5.734,0,0,0,.262.95.971.971,0,0,1,.05.537A.887.887,0,0,1,6.15,15a1.07,1.07,0,0,1-.962.363.9.9,0,0,1-.713-.663Zm6.85,7.6-2.6-2.6a.872.872,0,0,1-.212-.325,1.148,1.148,0,0,1,0-.75.872.872,0,0,1,.212-.325l2.6-2.6a.99.99,0,0,1,1.4,1.4l-.9.9H12a5.766,5.766,0,0,0,4.25-1.762A5.859,5.859,0,0,0,18,11.95a5.4,5.4,0,0,0-.087-.975,5.8,5.8,0,0,0-.263-.95.973.973,0,0,1-.05-.538A.887.887,0,0,1,17.85,9a1.07,1.07,0,0,1,.962-.363.9.9,0,0,1,.713.663,6.868,6.868,0,0,1,.363,1.312A8.019,8.019,0,0,1,20,11.95a7.8,7.8,0,0,1-2.325,5.7A7.679,7.679,0,0,1,12,20h-.175l.9.9a.99.99,0,0,1-1.4,1.4Z" transform="translate(-4 -1.425)"/>
</svg>
