<svg id="school" xmlns="http://www.w3.org/2000/svg" width="24" height="24" viewBox="0 0 24 24">
  <g id="Building" transform="translate(-432 -48)">
    <g id="school_fill" transform="translate(432 48)">
      <path id="MingCute" d="M24,0V24H0V0ZM12.593,23.258l-.012,0-.071.036-.019,0h0l-.015,0-.071-.036a.021.021,0,0,0-.024.005l0,.011-.017.427,0,.02.011.012.1.074.015,0h0l.012,0,.1-.074.013-.016h0l0-.017-.017-.427a.021.021,0,0,0-.016-.018Zm.265-.113-.014,0-.185.092-.01.01h0l0,.011.018.43,0,.013h0l.008.007.2.093a.025.025,0,0,0,.028-.008l0-.014-.034-.615a.025.025,0,0,0-.019-.021Zm-.715,0a.023.023,0,0,0-.027.005l-.006.014-.034.615a.023.023,0,0,0,.017.023h.016l.2-.093.009-.008h0l0-.012.018-.43,0-.013h0l-.009-.009Z" fill="none"/>
      <path id="形状" d="M11.063,2.469a1.5,1.5,0,0,1,1.753-.087l.121.087,4.312,3.45A2,2,0,0,1,17.992,7.3L18,7.48V19h1V10.5a.5.5,0,0,1,.41-.492L19.5,10H20a2,2,0,0,1,1.995,1.851L22,12v7.9a1.1,1.1,0,0,1-.98,1.094L20.9,21H3.1a1.1,1.1,0,0,1-1.094-.98L2,19.9V12a2,2,0,0,1,1.851-1.995L4,10h.5a.5.5,0,0,1,.492.41L5,10.5V19H6V7.48a2,2,0,0,1,.614-1.442l.136-.12ZM12,9a2,2,0,1,0,2,2A2,2,0,0,0,12,9Z" fill="#09244b" fill-rule="evenodd"/>
    </g>
  </g>
</svg>
