<svg xmlns="http://www.w3.org/2000/svg" width="24" height="24" viewBox="0 0 24 24">
  <g id="icon_24_share" data-name="icon/24/share" opacity="0.54">
    <rect id="BASE" width="24" height="24" fill="none"/>
    <path id="Combined_Shape" data-name="Combined Shape" d="M2.9,16A2.983,2.983,0,0,1,0,12.939V3.758A2.983,2.983,0,0,1,2.9.7H6.451a.746.746,0,0,1,.725.766.746.746,0,0,1-.725.765H2.9a1.491,1.491,0,0,0-1.45,1.53v9.181A1.492,1.492,0,0,0,2.9,14.47h8.7a1.492,1.492,0,0,0,1.45-1.531v-1.53a.726.726,0,1,1,1.45,0v1.53A2.984,2.984,0,0,1,11.6,16Zm.724-4.984c0-.35,0-.906,0-1.215a6.528,6.528,0,0,1,1.6-4.714C6.388,3.857,8.123,3.644,10.2,3.547V.574A.56.56,0,0,1,10.739,0,.529.529,0,0,1,11.1.149l4.718,4.518a.6.6,0,0,1,.037.81l-.033.036-4.717,4.612a.525.525,0,0,1-.769-.032A.593.593,0,0,1,10.2,9.7V6.748a10.6,10.6,0,0,0-3.106.412q-1.832.616-2.835,3.481a.546.546,0,0,1-.51.374Z" transform="translate(4 4)" fill="#010f07"/>
  </g>
</svg>
