<svg xmlns="http://www.w3.org/2000/svg" width="9" height="10" viewBox="0 0 9 10">
  <path id="share_FILL0_wght400_GRAD0_opsz24" d="M10.5,12A1.494,1.494,0,0,1,9,10.5a1.378,1.378,0,0,1,.013-.182.919.919,0,0,1,.038-.168L5.525,8.1a1.642,1.642,0,0,1-.475.293,1.5,1.5,0,0,1-1.613-.331,1.509,1.509,0,0,1,0-2.125A1.5,1.5,0,0,1,5.05,5.606a1.651,1.651,0,0,1,.475.294L9.05,3.85a.919.919,0,0,1-.038-.169A1.377,1.377,0,0,1,9,3.5a1.5,1.5,0,0,1,2.563-1.063A1.447,1.447,0,0,1,12,3.5,1.5,1.5,0,0,1,9.95,4.893,1.642,1.642,0,0,1,9.475,4.6L5.95,6.65a.919.919,0,0,1,.037.168,1.32,1.32,0,0,1,0,.363.918.918,0,0,1-.038.169L9.475,9.4a1.651,1.651,0,0,1,.475-.294A1.5,1.5,0,1,1,10.5,12Zm0-8a.491.491,0,1,0-.356-.144A.483.483,0,0,0,10.5,4Zm-6,3.5a.491.491,0,1,0-.357-.144A.484.484,0,0,0,4.5,7.5Zm6,3.5a.492.492,0,1,0-.356-.144A.483.483,0,0,0,10.5,11ZM10.5,3.5ZM4.5,7ZM10.5,10.5Z" transform="translate(-3 -2)"/>
</svg>
