<svg id="Group_1918" data-name="Group 1918" xmlns="http://www.w3.org/2000/svg" width="24" height="24" viewBox="0 0 24 24">
  <path id="Path_996" data-name="Path 996" d="M0,0H24V24H0Z" fill="none"/>
  <path id="Path_997" data-name="Path 997" d="M9.954,2.21a9.99,9.99,0,0,1,4.091,0,4,4,0,0,0,5.412,3.123A9.99,9.99,0,0,1,21.5,8.876a4,4,0,0,0,0,6.248,10.043,10.043,0,0,1-2.046,3.543,4,4,0,0,0-5.41,3.121,9.99,9.99,0,0,1-4.091,0,4,4,0,0,0-5.412-3.125A9.99,9.99,0,0,1,2.5,15.121a4,4,0,0,0,0-6.246A10.043,10.043,0,0,1,4.544,5.332a4,4,0,0,0,5.41-3.121ZM12,15a3,3,0,1,0-3-3A3,3,0,0,0,12,15Z" fill="#ffac00"/>
</svg>
