<svg id="Group_1878" data-name="Group 1878" xmlns="http://www.w3.org/2000/svg" xmlns:xlink="http://www.w3.org/1999/xlink" width="12" height="13.333" viewBox="0 0 12 13.333">
  <defs>
    <clipPath id="clip-path">
      <rect id="Rectangle_685" data-name="Rectangle 685" width="12" height="13.333" fill="none"/>
    </clipPath>
  </defs>
  <g id="Group_1877" data-name="Group 1877" clip-path="url(#clip-path)">
    <path id="Path_981" data-name="Path 981" d="M4,3.333A3.333,3.333,0,1,1,8,6.6V10a.667.667,0,0,1-1.333,0V6.6A3.334,3.334,0,0,1,4,3.333" transform="translate(-1.333 0)" fill="#ffac00" fill-rule="evenodd"/>
    <path id="Path_982" data-name="Path 982" d="M4.326,13.818a.667.667,0,0,1-.559.759,7.172,7.172,0,0,0-1.973.543,1.51,1.51,0,0,0-.424.281l-.015.016a.781.781,0,0,0,.127.112,3.308,3.308,0,0,0,.946.429A12.532,12.532,0,0,0,6,16.417a12.534,12.534,0,0,0,3.573-.458,3.3,3.3,0,0,0,.945-.429.765.765,0,0,0,.127-.112l-.015-.016a1.521,1.521,0,0,0-.424-.281,7.172,7.172,0,0,0-1.973-.543.667.667,0,1,1,.2-1.318,8.414,8.414,0,0,1,2.359.664,2.807,2.807,0,0,1,.806.561,1.356,1.356,0,0,1,.4.933,1.505,1.505,0,0,1-.689,1.185,4.608,4.608,0,0,1-1.341.63A13.843,13.843,0,0,1,6,17.75a13.85,13.85,0,0,1-3.97-.518A4.612,4.612,0,0,1,.69,16.6,1.506,1.506,0,0,1,0,15.417a1.356,1.356,0,0,1,.4-.933,2.8,2.8,0,0,1,.805-.561,8.426,8.426,0,0,1,2.359-.664.667.667,0,0,1,.759.559" transform="translate(0 -4.417)" fill-rule="evenodd"/>
  </g>
</svg>
