<svg xmlns="http://www.w3.org/2000/svg" width="33" height="33" viewBox="0 0 33 33">
  <g id="Group_1903" data-name="Group 1903" transform="translate(-240 -482)">
    <path id="Path_986" data-name="Path 986" d="M16.5,0A16.5,16.5,0,1,1,0,16.5,16.5,16.5,0,0,1,16.5,0Z" transform="translate(240 482)" fill="#464646"/>
    <path id="backup_FILL1_wght400_GRAD0_opsz24" d="M5.5,17.091A4.386,4.386,0,0,1,2.32,15.8,4.234,4.234,0,0,1,1,12.652a4.534,4.534,0,0,1,.961-2.843,4.252,4.252,0,0,1,2.516-1.6A5.693,5.693,0,0,1,10,4a5.525,5.525,0,0,1,4.06,1.667,5.526,5.526,0,0,1,1.667,4.061A3.69,3.69,0,0,1,19,13.409a3.665,3.665,0,0,1-3.682,3.682h-4.5v-5.85l.736.716a.764.764,0,0,0,.563.225.8.8,0,0,0,.583-.245.841.841,0,0,0,0-1.145L10.573,8.664a.791.791,0,0,0-1.145,0L7.3,10.791a.8.8,0,0,0-.235.562.761.761,0,0,0,.235.583.84.84,0,0,0,1.145.02l.736-.716v5.85Z" transform="translate(247 487)" fill="#fff"/>
  </g>
</svg>
