<svg id="mastercard" xmlns="http://www.w3.org/2000/svg" width="37.089" height="24.528" viewBox="0 0 37.089 24.528">
  <g id="Group" opacity="0">
    <rect id="Rectangle" width="37.089" height="24.528" fill="#fff"/>
  </g>
  <rect id="Rectangle-2" data-name="Rectangle" width="9.782" height="15.981" transform="translate(13.653 4.273)" fill="#f26122"/>
  <path id="Path" d="M12.617,10.166A10.137,10.137,0,0,1,16.45,2.175a10.166,10.166,0,1,0,0,15.981A10.137,10.137,0,0,1,12.617,10.166Z" transform="translate(2.09 2.098)" fill="#ea1d25"/>
  <path id="Shape" d="M.479.394H.412V0h.1L.632.278.748,0h.1V.392H.776V.1L.671.354H.594L.479.1v.3Zm-.288,0H.135V.067H0V0H.335V.067H.191V.392Z" transform="translate(33.812 18.166)" fill="#f69e1e"/>
  <path id="Path-2" data-name="Path" d="M16.441,10.159A10.166,10.166,0,0,1,0,18.15,10.166,10.166,0,0,0,1.705,3.883,9.964,9.964,0,0,0,0,2.168a10.166,10.166,0,0,1,16.441,7.991Z" transform="translate(18.54 2.105)" fill="#f69e1e"/>
</svg>
